<svg width="20" height="21" viewBox="0 0 20 21" fill="none" xmlns="http://www.w3.org/2000/svg">
<path d="M2 18V16H4V8.99995C4 7.61662 4.41667 6.38762 5.25 5.31295C6.08333 4.23828 7.16667 3.53395 8.5 3.19995V2.49995C8.5 2.08328 8.646 1.72928 8.938 1.43795C9.23 1.14662 9.584 1.00062 10 0.999951C10.4167 0.999951 10.771 1.14595 11.063 1.43795C11.355 1.72995 11.5007 2.08395 11.5 2.49995V3.19995C12.8333 3.53328 13.9167 4.23762 14.75 5.31295C15.5833 6.38828 16 7.61728 16 8.99995V16H18V18H2ZM10 21C9.45 21 8.97933 20.8043 8.588 20.413C8.19667 20.0216 8.00067 19.5506 8 19H12C12 19.5499 11.8043 20.021 11.413 20.413C11.0217 20.805 10.5507 21.0006 10 21ZM0 8.99995C0 7.33328 0.371 5.80428 1.113 4.41295C1.855 3.02162 2.85067 1.86728 4.1 0.949951L5.275 2.54995C4.275 3.28328 3.47933 4.20828 2.888 5.32495C2.29667 6.44162 2.00067 7.66662 2 8.99995H0ZM18 8.99995C18 7.66662 17.704 6.44162 17.112 5.32495C16.52 4.20828 15.7247 3.28328 14.726 2.54995L15.901 0.949951C17.151 1.86662 18.147 3.02095 18.889 4.41295C19.631 5.80495 20.0013 7.33395 20 8.99995H18Z" fill="#522700"/>
</svg>
