<svg width="24" height="25" viewBox="0 0 24 25" fill="none" xmlns="http://www.w3.org/2000/svg">
<path d="M16.2645 20.1034L9.34796 13.0759C9.19626 12.9226 9.11118 12.7156 9.11118 12.4999C9.11118 12.2842 9.19626 12.0773 9.34796 11.9239L16.263 4.89642C16.4146 4.74214 16.4995 4.53448 16.4995 4.31817C16.4995 4.10186 16.4146 3.89421 16.263 3.73992C16.1889 3.66395 16.1004 3.60357 16.0026 3.56234C15.9048 3.52112 15.7998 3.49988 15.6937 3.49988C15.5876 3.49988 15.4826 3.52112 15.3848 3.56234C15.287 3.60357 15.1985 3.66395 15.1245 3.73992L8.20946 10.7659C7.75507 11.2287 7.50049 11.8514 7.50049 12.4999C7.50049 13.1485 7.75507 13.7711 8.20946 14.2339L15.1245 21.2599C15.1985 21.3361 15.2872 21.3967 15.3851 21.4381C15.483 21.4794 15.5882 21.5007 15.6945 21.5007C15.8007 21.5007 15.9059 21.4794 16.0038 21.4381C16.1017 21.3967 16.1904 21.3361 16.2645 21.2599C16.4161 21.1056 16.501 20.898 16.501 20.6817C16.501 20.4654 16.4161 20.2577 16.2645 20.1034Z" fill="black"/>
</svg>
