<svg width="24" height="24" viewBox="0 0 24 24" fill="none" xmlns="http://www.w3.org/2000/svg">
<path d="M19.6037 7.73554L12.5762 14.652C12.4228 14.8037 12.2159 14.8888 12.0002 14.8888C11.7845 14.8888 11.5775 14.8037 11.4242 14.652L4.39667 7.73704C4.24238 7.58543 4.03473 7.50048 3.81841 7.50048C3.60211 7.50048 3.39445 7.58543 3.24017 7.73704C3.16419 7.81111 3.10382 7.89963 3.06259 7.9974C3.02136 8.09516 3.00012 8.20019 3.00012 8.3063C3.00012 8.4124 3.02136 8.51742 3.06259 8.61519C3.10382 8.71295 3.16419 8.80148 3.24017 8.87554L10.2662 15.7905C10.7289 16.2449 11.3516 16.4995 12.0002 16.4995C12.6487 16.4995 13.2714 16.2449 13.7342 15.7905L20.7602 8.87554C20.8364 8.80146 20.8969 8.71284 20.9383 8.61493C20.9797 8.51703 21.001 8.41183 21.001 8.30554C21.001 8.19926 20.9797 8.09406 20.9383 7.99615C20.8969 7.89825 20.8364 7.80963 20.7602 7.73554C20.6059 7.58393 20.3982 7.49898 20.1819 7.49898C19.9656 7.49898 19.7579 7.58393 19.6037 7.73554Z" fill="black"/>
</svg>
