<svg width="22" height="19" viewBox="0 0 22 19" fill="none" xmlns="http://www.w3.org/2000/svg">
<path d="M2.00002 2.125V1.75C2.00002 1.45163 2.11854 1.16548 2.32952 0.954505C2.5405 0.743527 2.82665 0.625001 3.12502 0.625001H9.12502C9.90727 0.625001 10.5973 1.02475 11 1.63075C11.2052 1.32129 11.4838 1.06747 11.811 0.891969C12.1382 0.716466 12.5037 0.624745 12.875 0.625001H18.875C19.1734 0.625001 19.4595 0.743527 19.6705 0.954505C19.8815 1.16548 20 1.45163 20 1.75V2.125H20.3743C21.203 2.125 21.875 2.7925 21.875 3.62125V15.6213L21.8743 15.6715V16.3713C21.8743 16.9915 21.3718 17.5 20.7485 17.5H12.299C12.1675 17.7282 11.9782 17.9177 11.7502 18.0495C11.5221 18.1813 11.2634 18.2507 11 18.2507C10.7366 18.2507 10.4779 18.1813 10.2499 18.0495C10.0218 17.9177 9.83252 17.7282 9.70102 17.5H1.25002C0.627518 17.5 0.124268 16.999 0.124268 16.3787V3.62125C0.124268 2.7925 0.796268 2.125 1.62502 2.125H2.00002ZM3.12502 1.375C3.02556 1.375 2.93018 1.41451 2.85985 1.48484C2.78953 1.55516 2.75002 1.65054 2.75002 1.75V13C2.75002 13.0995 2.78953 13.1948 2.85985 13.2652C2.93018 13.3355 3.02556 13.375 3.12502 13.375H9.32302C9.80873 13.375 10.2755 13.5635 10.625 13.9008V2.875C10.625 2.47718 10.467 2.09565 10.1857 1.81434C9.90437 1.53304 9.52284 1.375 9.12502 1.375H3.12502ZM11.375 2.875V13.9008C11.7245 13.5635 12.1913 13.375 12.677 13.375H18.875C18.9745 13.375 19.0699 13.3355 19.1402 13.2652C19.2105 13.1948 19.25 13.0995 19.25 13V1.75C19.25 1.65054 19.2105 1.55516 19.1402 1.48484C19.0699 1.41451 18.9745 1.375 18.875 1.375H12.875C12.4772 1.375 12.0957 1.53304 11.8144 1.81434C11.5331 2.09565 11.375 2.47718 11.375 2.875ZM11.0015 14.4085H10.9985L11 14.4115L11.0015 14.4085ZM1.49152 2.887C1.31875 2.9175 1.16226 3.0079 1.04952 3.14231C0.936773 3.27673 0.87499 3.44656 0.875018 3.622V15.6287C0.875018 16.0412 1.20877 16.375 1.62577 16.375H9.91702L10.025 16.5625C10.1237 16.7339 10.2657 16.8762 10.4369 16.9752C10.6081 17.0741 10.8023 17.1263 11 17.1263C11.1977 17.1263 11.392 17.0741 11.5631 16.9752C11.7343 16.8762 11.8764 16.7339 11.975 16.5625L12.083 16.375H20.3743C20.7883 16.375 21.125 16.0368 21.125 15.6213V3.62125C21.125 3.44571 21.0631 3.27578 20.9502 3.14135C20.8373 3.00692 20.6807 2.9166 20.5078 2.88625L20.75 3.25V14.125C20.75 14.4234 20.6315 14.7095 20.4205 14.9205C20.2095 15.1315 19.9234 15.25 19.625 15.25H11.4193L11 16.0885L10.5808 15.25H2.37502C2.07665 15.25 1.7905 15.1315 1.57952 14.9205C1.36854 14.7095 1.25002 14.4234 1.25002 14.125V3.25L1.49152 2.887Z" fill="#FAF6EB"/>
</svg>
