<svg width="9" height="36" viewBox="0 0 9 36" fill="none" xmlns="http://www.w3.org/2000/svg">
<path d="M4.784 35.384C3.67467 35.384 2.736 35 1.968 34.232C1.2 33.464 0.816 32.5253 0.816 31.416C0.816 30.3067 1.2 29.368 1.968 28.6C2.736 27.832 3.67467 27.448 4.784 27.448C5.85067 27.448 6.74667 27.832 7.472 28.6C8.24 29.368 8.624 30.3067 8.624 31.416C8.624 32.5253 8.24 33.464 7.472 34.232C6.74667 35 5.85067 35.384 4.784 35.384ZM4.784 7.992C3.67467 7.992 2.736 7.608 1.968 6.84C1.2 6.072 0.816 5.13333 0.816 4.024C0.816 2.91466 1.2 1.976 1.968 1.208C2.736 0.44 3.67467 0.0559998 4.784 0.0559998C5.85067 0.0559998 6.74667 0.44 7.472 1.208C8.24 1.976 8.624 2.91466 8.624 4.024C8.624 5.13333 8.24 6.072 7.472 6.84C6.74667 7.608 5.85067 7.992 4.784 7.992Z" fill="black"/>
</svg>
