<svg width="445" height="185" viewBox="0 0 445 185" fill="none" xmlns="http://www.w3.org/2000/svg">
<path d="M41.2948 74.8359C41.2948 76.3109 40.7405 77.7254 39.754 78.7684C38.7675 79.8114 37.4295 80.3973 36.0343 80.3973C34.6392 80.3973 33.3011 79.8114 32.3146 78.7684C31.3281 77.7254 30.7739 76.3109 30.7739 74.8359C30.7739 73.3609 31.3281 71.9463 32.3146 70.9034C33.3011 69.8604 34.6392 69.2745 36.0343 69.2745C37.4295 69.2745 38.7675 69.8604 39.754 70.9034C40.7405 71.9463 41.2948 73.3609 41.2948 74.8359" fill="#A85000"/>
<path d="M368.061 178.474C368.061 179.331 367.901 180.18 367.591 180.971C367.281 181.763 366.826 182.483 366.253 183.089C365.68 183.695 364.999 184.175 364.25 184.503C363.501 184.831 362.699 185 361.888 185C361.077 185 360.274 184.831 359.526 184.503C358.777 184.175 358.096 183.695 357.523 183.089C356.95 182.483 356.495 181.763 356.185 180.971C355.875 180.18 355.715 179.331 355.715 178.474C355.715 177.617 355.875 176.768 356.185 175.976C356.495 175.185 356.95 174.465 357.523 173.859C358.096 173.253 358.777 172.772 359.526 172.444C360.274 172.116 361.077 171.948 361.888 171.948C362.699 171.948 363.501 172.116 364.25 172.444C364.999 172.772 365.68 173.253 366.253 173.859C366.826 174.465 367.281 175.185 367.591 175.976C367.901 176.768 368.061 177.617 368.061 178.474" fill="#A85000"/>
<path d="M11.973 54.6092C11.973 55.4403 11.8181 56.2633 11.5173 57.0312C11.2164 57.7991 10.7755 58.4968 10.2196 59.0845C9.66367 59.6722 9.00372 60.1384 8.27741 60.4564C7.5511 60.7745 6.77264 60.9382 5.98648 60.9382C5.20033 60.9382 4.42187 60.7745 3.69555 60.4564C2.96924 60.1384 2.3093 59.6722 1.7534 59.0845C1.1975 58.4968 0.756543 57.7991 0.455694 57.0312C0.154845 56.2633 -1.17146e-08 55.4403 0 54.6092C-1.17146e-08 53.7781 0.154845 52.9551 0.455694 52.1872C0.756543 51.4193 1.1975 50.7216 1.7534 50.1339C2.3093 49.5462 2.96924 49.08 3.69555 48.762C4.42187 48.4439 5.20033 48.2802 5.98648 48.2802C6.77264 48.2802 7.5511 48.4439 8.27741 48.762C9.00372 49.08 9.66367 49.5462 10.2196 50.1339C10.7755 50.7216 11.2164 51.4193 11.5173 52.1872C11.8181 52.9551 11.973 53.7781 11.973 54.6092" fill="#A85000"/>
<path d="M441.877 112.978C441.877 113.605 441.76 114.226 441.533 114.806C441.306 115.385 440.974 115.912 440.554 116.355C440.134 116.799 439.636 117.151 439.088 117.391C438.54 117.631 437.952 117.754 437.359 117.754C436.766 117.754 436.178 117.631 435.63 117.391C435.082 117.151 434.584 116.799 434.164 116.355C433.745 115.912 433.412 115.385 433.185 114.806C432.958 114.226 432.841 113.605 432.841 112.978C432.841 112.35 432.958 111.729 433.185 111.15C433.412 110.57 433.745 110.044 434.164 109.6C434.584 109.157 435.082 108.805 435.63 108.565C436.178 108.325 436.766 108.201 437.359 108.201C437.952 108.201 438.54 108.325 439.088 108.565C439.636 108.805 440.134 109.157 440.554 109.6C440.974 110.044 441.306 110.57 441.533 111.15C441.76 111.729 441.877 112.35 441.877 112.978" fill="#A85000"/>
<path d="M61.9968 158.632C61.9968 159.388 61.713 160.112 61.2077 160.646C60.7025 161.181 60.0172 161.481 59.3027 161.481C58.5882 161.481 57.9029 161.181 57.3976 160.646C56.8924 160.112 56.6086 159.388 56.6086 158.632C56.6086 157.877 56.8924 157.152 57.3976 156.618C57.9029 156.084 58.5882 155.784 59.3027 155.784C60.0172 155.784 60.7025 156.084 61.2077 156.618C61.713 157.152 61.9968 157.877 61.9968 158.632" fill="#A85000"/>
<path d="M345.83 130.508C345.83 132.121 345.224 133.669 344.145 134.81C343.065 135.95 341.602 136.591 340.075 136.591C338.549 136.591 337.086 135.95 336.006 134.81C334.927 133.669 334.321 132.121 334.321 130.508C334.321 128.894 334.927 127.347 336.006 126.206C337.086 125.065 338.549 124.424 340.075 124.424C341.602 124.424 343.065 125.065 344.145 126.206C345.224 127.347 345.83 128.894 345.83 130.508" fill="#A85000"/>
<path d="M382.391 4.33133C382.391 5.48007 381.959 6.58176 381.191 7.39405C380.423 8.20633 379.38 8.66266 378.294 8.66266C377.207 8.66266 376.165 8.20633 375.397 7.39405C374.629 6.58176 374.197 5.48007 374.197 4.33133C374.197 3.18259 374.629 2.0809 375.397 1.26862C376.165 0.456335 377.207 0 378.294 0C379.38 0 380.423 0.456335 381.191 1.26862C381.959 2.0809 382.391 3.18259 382.391 4.33133" fill="#A85000"/>
<path d="M399.77 93.3289C399.77 93.9562 399.654 94.5774 399.426 95.1569C399.199 95.7364 398.867 96.263 398.447 96.7066C398.027 97.1501 397.529 97.502 396.981 97.742C396.433 97.9821 395.846 98.1056 395.252 98.1056C394.659 98.1056 394.071 97.9821 393.523 97.742C392.975 97.502 392.477 97.1501 392.057 96.7066C391.638 96.263 391.305 95.7364 391.078 95.1569C390.851 94.5774 390.734 93.9562 390.734 93.3289C390.734 92.7017 390.851 92.0805 391.078 91.501C391.305 90.9214 391.638 90.3949 392.057 89.9513C392.477 89.5077 392.975 89.1559 393.523 88.9158C394.071 88.6758 394.659 88.5522 395.252 88.5522C395.846 88.5522 396.433 88.6758 396.981 88.9158C397.529 89.1559 398.027 89.5077 398.447 89.9513C398.867 90.3949 399.199 90.9214 399.426 91.501C399.654 92.0805 399.77 92.7017 399.77 93.3289" fill="#A85000"/>
<path d="M368.157 112.015C368.157 113.682 367.53 115.282 366.415 116.461C365.299 117.641 363.786 118.303 362.209 118.303C360.631 118.303 359.118 117.641 358.002 116.461C356.887 115.282 356.26 113.682 356.26 112.015C356.26 110.347 356.887 108.747 358.002 107.568C359.118 106.388 360.631 105.726 362.209 105.726C363.786 105.726 365.299 106.388 366.415 107.568C367.53 108.747 368.157 110.347 368.157 112.015" fill="#A85000"/>
<path d="M445 154.78C445 155.242 444.826 155.686 444.517 156.013C444.207 156.34 443.788 156.524 443.35 156.524C442.913 156.524 442.493 156.34 442.184 156.013C441.874 155.686 441.7 155.242 441.7 154.78C441.7 154.317 441.874 153.873 442.184 153.546C442.493 153.219 442.913 153.035 443.35 153.035C443.788 153.035 444.207 153.219 444.517 153.546C444.826 153.873 445 154.317 445 154.78" fill="#A85000"/>
</svg>
