<svg width="20" height="20" viewBox="0 0 20 20" fill="none" xmlns="http://www.w3.org/2000/svg">
<path d="M10.707 0.293031L19.707 9.29303C20.337 9.92303 19.891 11 19 11H18V17C18 17.7957 17.684 18.5587 17.1214 19.1214C16.5588 19.684 15.7957 20 15 20H14V13C14.0001 12.2348 13.7077 11.4985 13.1828 10.9418C12.6578 10.385 11.9399 10.0499 11.176 10.005L11 10H9.00004C8.20439 10 7.44133 10.3161 6.87872 10.8787C6.31611 11.4413 6.00004 12.2044 6.00004 13V20H5.00004C4.20439 20 3.44133 19.684 2.87872 19.1214C2.31611 18.5587 2.00004 17.7957 2.00004 17V11H1.00004C0.110039 11 -0.336961 9.92303 0.293039 9.29303L9.29304 0.293031C9.48057 0.105559 9.73487 0.000244141 10 0.000244141C10.2652 0.000244141 10.5195 0.105559 10.707 0.293031ZM11 12C11.2653 12 11.5196 12.1054 11.7071 12.2929C11.8947 12.4805 12 12.7348 12 13V20H8.00004V13C8.00007 12.7551 8.09 12.5187 8.25275 12.3357C8.41551 12.1526 8.63979 12.0357 8.88304 12.007L9.00004 12H11Z" fill="#FAF6EB"/>
</svg>
