<svg width="390" height="496" viewBox="0 0 390 496" fill="none" xmlns="http://www.w3.org/2000/svg">
<path fill-rule="evenodd" clip-rule="evenodd" d="M377.532 165.883V158.53H370.153V99.2792C370.346 99.1468 370.471 98.9197 370.471 98.6625C370.471 98.3105 370.232 98.0082 369.918 97.933V96.0138V95.6362L369.929 95.546C369.922 95.4858 369.918 95.4332 369.918 95.376V94.4465H370.219C370.422 94.4465 370.588 94.272 370.588 94.0645C370.588 93.8524 370.421 93.6824 370.219 93.6824H369.81C370.013 93.0552 370.259 91.8565 369.745 90.6396C369.506 90.0696 369.024 89.5356 368.478 89.0709C367.946 88.6091 367.352 88.2135 366.866 87.9293C366.892 87.8541 366.914 87.7548 366.921 87.642C366.921 87.5096 366.91 87.3592 366.845 87.2043V87.1998C366.78 87.0403 366.639 86.8974 366.486 86.7696C366.345 86.6568 366.189 86.562 366.077 86.5019L366.065 86.2296C366.098 86.2071 366.12 86.177 366.141 86.1424C366.16 86.1003 366.175 86.0477 366.175 85.995C366.175 85.9424 366.156 85.8927 366.134 85.8431C366.113 85.8055 366.079 85.7709 366.048 85.7453L366.038 85.5227C366.038 85.5227 366.077 85.4776 366.095 85.4475C366.11 85.4174 366.121 85.3753 366.121 85.3347C366.121 85.2926 366.103 85.2475 366.088 85.2144C366.069 85.1843 366.048 85.1572 366.019 85.1316L366.007 84.894L365.928 83.05C365.928 83.05 365.909 83.0079 365.888 83.0079C365.866 83.0033 365.847 83.0199 365.845 83.05L365.768 84.894L365.757 85.1316C365.757 85.1316 365.706 85.1843 365.687 85.2144C365.661 85.249 365.651 85.2941 365.651 85.3347C365.651 85.3768 365.663 85.4174 365.685 85.4475C365.699 85.4776 365.718 85.5002 365.718 85.5002L365.732 85.7453C365.692 85.7724 365.66 85.8055 365.641 85.8431C365.615 85.8927 365.602 85.9409 365.602 85.995C365.602 86.0477 365.61 86.1003 365.634 86.1424C365.634 86.1424 365.677 86.2071 365.71 86.2296L365.699 86.5019C365.584 86.562 365.431 86.6568 365.29 86.7696C365.137 86.8974 364.996 87.0418 364.928 87.1998C364.866 87.3592 364.851 87.5066 364.859 87.642C364.863 87.7548 364.885 87.8541 364.906 87.9293C364.425 88.212 363.831 88.6091 363.298 89.0709C362.751 89.5356 362.27 90.0681 362.031 90.6396C361.516 91.8565 361.763 93.0537 361.969 93.6824H361.614C361.415 93.6824 361.252 93.8524 361.252 94.0645C361.252 94.272 361.415 94.4465 361.614 94.4465H361.908V95.546V97.9375C361.597 98.0172 361.365 98.315 361.365 98.6625C361.365 98.9197 361.492 99.1468 361.683 99.2792V158.53H357.153V157.351H357.537C358.409 157.351 359.115 156.611 359.115 155.699C359.115 154.797 358.409 154.052 357.537 154.052H356.689C358.275 150.149 362.32 137.954 357.073 125.499C356.512 124.164 355.48 122.917 354.635 121.628V109.051H354.407C354.678 108.919 354.987 108.779 354.987 108.451C354.987 108.062 354.73 107.741 354.389 107.649V105.011V103.802H354.707C354.928 103.802 355.109 103.609 355.109 103.379C355.109 103.149 354.928 102.96 354.707 102.96H354.32C354.544 102.272 354.815 100.953 354.255 99.6115C353.991 98.9874 353.458 98.3948 352.857 97.8773C352.27 97.375 351.614 96.9433 351.085 96.6229C351.107 96.5432 351.136 96.4379 351.14 96.3056C351.147 96.1627 351.128 95.9957 351.053 95.8258C350.984 95.6513 350.833 95.4888 350.659 95.3535C350.506 95.2286 350.336 95.1233 350.213 95.0466L350.199 94.7564C350.235 94.7293 350.261 94.6962 350.282 94.6541C350.307 94.6089 350.318 94.5563 350.318 94.4991C350.318 94.439 350.304 94.3818 350.274 94.3292C350.248 94.2916 350.216 94.254 350.176 94.2239L350.161 93.9742C350.19 93.9517 350.212 93.9246 350.23 93.8945C350.245 93.8569 350.259 93.8118 350.259 93.7697C350.259 93.72 350.241 93.6719 350.223 93.6343C350.205 93.5997 350.18 93.5696 350.151 93.5471L350.137 93.2823L350.049 91.2458C350.046 91.2187 350.023 91.2007 350.001 91.2007C350.001 91.2007 349.958 91.2202 349.958 91.2458L349.872 93.2823L349.857 93.5471C349.857 93.5471 349.802 93.5997 349.785 93.6343C349.759 93.6719 349.745 93.7215 349.745 93.7697C349.745 93.8118 349.759 93.8569 349.781 93.8945C349.795 93.9246 349.814 93.9517 349.838 93.9742L349.827 94.2239C349.791 94.254 349.755 94.2916 349.733 94.3292C349.704 94.3818 349.686 94.439 349.686 94.4991C349.686 94.5563 349.7 94.6089 349.722 94.6541C349.743 94.6962 349.774 94.7293 349.805 94.7564L349.794 95.0466C349.667 95.1218 349.497 95.2286 349.344 95.3535C349.177 95.4888 349.021 95.6513 348.946 95.8258C348.877 95.9957 348.86 96.1627 348.863 96.3056C348.874 96.4379 348.896 96.5432 348.917 96.6229C348.388 96.9448 347.737 97.375 347.146 97.8773C346.549 98.3948 346.016 98.9889 345.748 99.6115C345.187 100.953 345.458 102.272 345.683 102.96H345.226C345.006 102.96 344.824 103.149 344.824 103.379C344.824 103.609 345.006 103.802 345.226 103.802H345.559V104.826C345.556 104.886 345.552 104.947 345.548 105.011L345.559 105.109V105.529V107.645C345.212 107.732 344.951 108.053 344.951 108.45C344.951 108.779 345.255 108.919 345.526 109.05H345.298V111.316C340.971 107.719 336.303 104.578 332.439 102.266C332.627 101.627 332.819 100.774 332.862 99.8026C332.917 98.661 332.776 97.3644 332.228 96.0544C331.656 94.7052 330.457 93.4388 329.149 92.3814C327.936 91.3992 326.63 90.5795 325.661 90.0275L325.56 87.7518C325.824 87.5367 326.046 87.2645 326.205 86.9501C326.389 86.5906 326.494 86.1785 326.494 85.7483C326.494 85.2715 326.368 84.8218 326.15 84.4413C325.958 84.1043 325.697 83.8171 325.382 83.6065L325.298 81.6572C325.497 81.4827 325.66 81.2751 325.784 81.033C325.932 80.7427 326.019 80.4133 326.019 80.0613C326.019 79.6793 325.918 79.3138 325.743 79.007C325.595 78.7498 325.392 78.5302 325.157 78.3602L325.066 76.2816L324.386 60.4585C324.374 60.2585 324.211 60.1035 324.024 60.1111C323.842 60.1186 323.698 60.2705 323.695 60.4585L323.011 76.2816L322.924 78.3557C322.685 78.5257 322.486 78.7483 322.338 79.0025V79.007C322.163 79.3138 322.059 79.6793 322.059 80.0613C322.059 80.4133 322.146 80.7382 322.294 81.033L322.299 81.0375H322.294C322.417 81.2751 322.58 81.4827 322.783 81.6572L322.697 83.6065C322.381 83.8186 322.121 84.1059 321.933 84.4413C321.715 84.8233 321.588 85.273 321.588 85.7483C321.588 86.1785 321.693 86.5906 321.878 86.9501C322.033 87.2645 322.254 87.5322 322.519 87.7518L322.418 90.0275C321.453 90.5795 320.141 91.3992 318.93 92.3814C317.623 93.4388 316.421 94.7052 315.856 96.0544L315.844 96.0739C315.298 97.378 315.164 98.67 315.217 99.8041C315.265 100.776 315.452 101.63 315.641 102.268C312.44 104.187 308.695 106.758 305.034 109.591V70.1749C305.23 70.0396 305.36 69.8049 305.36 69.5402C305.36 69.1732 305.118 68.8679 304.788 68.7882V66.7968V66.4042L304.799 66.3139C304.792 66.2538 304.792 66.1966 304.788 66.1395V65.1753H305.099C305.31 65.1753 305.475 65.0009 305.475 64.7783C305.475 64.5662 305.308 64.3857 305.099 64.3857H304.675C304.882 63.7389 305.142 62.4995 304.611 61.2421C304.36 60.657 303.861 60.0975 303.296 59.6132C302.745 59.1409 302.133 58.7333 301.634 58.4385C301.656 58.3588 301.679 58.2565 301.689 58.1407C301.692 58.0053 301.674 57.8459 301.61 57.691V57.6864C301.54 57.524 301.396 57.3721 301.236 57.2412C301.091 57.1239 300.932 57.0216 300.817 56.9585L300.803 56.6832C300.836 56.6607 300.86 56.6261 300.883 56.5885C300.905 56.5433 300.915 56.4937 300.915 56.4456C300.915 56.3884 300.903 56.3328 300.875 56.2861C300.853 56.244 300.82 56.2109 300.784 56.1839L300.774 55.9462C300.795 55.9267 300.817 55.9011 300.827 55.874C300.853 55.8364 300.856 55.7988 300.856 55.7567C300.856 55.7071 300.849 55.6664 300.827 55.6288C300.805 55.5988 300.784 55.5687 300.755 55.5491L300.743 55.2994L300.66 53.3878L300.619 53.3456L300.576 53.3878L300.493 55.2994L300.485 55.5491C300.452 55.5687 300.431 55.5988 300.413 55.6288C300.392 55.6664 300.377 55.7086 300.377 55.7567C300.377 55.7988 300.389 55.8364 300.406 55.874C300.406 55.874 300.442 55.9267 300.468 55.9462L300.457 56.1839C300.416 56.2109 300.387 56.244 300.363 56.2861C300.338 56.3313 300.323 56.3884 300.323 56.4456C300.323 56.4952 300.334 56.5433 300.356 56.5885C300.356 56.5885 300.406 56.6607 300.435 56.6832L300.421 56.9585C300.305 57.0231 300.145 57.1254 300.004 57.2412C299.841 57.3736 299.7 57.524 299.628 57.6864C299.563 57.8459 299.544 58.0008 299.551 58.1392C299.559 58.2565 299.58 58.3588 299.602 58.437C299.102 58.7318 298.491 59.1394 297.94 59.6117C297.379 60.096 296.875 60.654 296.628 61.2406C296.097 62.4995 296.353 63.7389 296.564 64.3842H296.202C295.993 64.3842 295.818 64.5662 295.818 64.7767C295.818 64.9994 295.993 65.1738 296.202 65.1738H296.503V66.3109V68.7867C296.18 68.8739 295.942 69.1762 295.942 69.5387C295.942 69.8034 296.069 70.0381 296.268 70.1734V117.626C294.07 120.142 292.169 122.761 291.013 125.494C285.769 137.949 289.811 150.145 291.396 154.048H290.553C289.688 154.048 288.975 154.792 288.975 155.695C288.975 156.606 289.688 157.346 290.553 157.346H291.336V158.525H287.203V132.678H285.125V124.435C285.673 124.028 286.081 123.46 286.081 122.708C286.081 121.642 285.367 120.752 284.414 120.517V114.72V113.576L284.443 113.308C284.432 113.133 284.417 112.963 284.414 112.801V109.997H285.32C285.932 109.997 286.428 109.48 286.428 108.848C286.428 108.216 285.932 107.696 285.32 107.696H284.084C284.693 105.81 285.439 102.202 283.893 98.5316C283.172 96.823 281.712 95.1985 280.064 93.7847C278.46 92.4054 276.672 91.2232 275.219 90.3539C275.281 90.1267 275.35 89.8289 275.367 89.4845C275.386 89.0874 275.334 88.6302 275.147 88.1699L275.142 88.1624C274.943 87.6901 274.52 87.2404 274.06 86.8704C273.633 86.5229 273.172 86.2387 272.832 86.0431L272.796 85.2415C272.889 85.1663 272.966 85.0715 273.023 84.9587C273.085 84.8384 273.122 84.6909 273.122 84.536C273.122 84.3691 273.081 84.2112 273.002 84.0743C272.933 83.9615 272.842 83.8547 272.734 83.784L272.705 83.0966C272.773 83.0365 272.832 82.9612 272.871 82.877C272.926 82.7747 272.954 82.6574 272.954 82.5326C272.954 82.3972 272.923 82.2724 272.861 82.1626C272.81 82.0753 272.734 81.9926 272.655 81.9324L272.621 81.2029L272.382 75.6288C272.375 75.5641 272.332 75.5115 272.267 75.5115C272.199 75.507 272.14 75.5611 272.133 75.6288L271.898 81.2029L271.865 81.9324C271.781 81.9926 271.712 82.0753 271.666 82.1626C271.601 82.2724 271.561 82.3972 271.561 82.5326C271.561 82.6574 271.589 82.7747 271.644 82.877C271.687 82.9597 271.745 83.0365 271.821 83.0966L271.788 83.784C271.676 83.8562 271.582 83.9615 271.517 84.0743C271.441 84.2096 271.395 84.3691 271.395 84.536C271.395 84.6909 271.435 84.8384 271.5 84.9587C271.555 85.0715 271.634 85.1663 271.725 85.2415L271.693 86.0431C271.349 86.2402 270.889 86.5229 270.462 86.8704C270.002 87.2404 269.579 87.6901 269.375 88.1624C269.182 88.6272 269.136 89.0889 269.154 89.4845C269.172 89.8289 269.237 90.1267 269.306 90.3539C267.851 91.2232 266.065 92.4054 264.458 93.7847C262.81 95.1985 261.354 96.823 260.634 98.5316C259.087 102.202 259.829 105.81 260.445 107.696H259.391C258.783 107.696 258.287 108.218 258.287 108.848C258.287 109.48 258.783 109.997 259.391 109.997H260.265V113.308V120.526C259.331 120.776 258.632 121.663 258.632 122.71C258.632 123.462 259.041 124.029 259.584 124.437V132.679H255.351V127.732H254.989C255.42 127.528 255.906 127.305 255.906 126.775C255.906 126.163 255.49 125.646 254.939 125.517V122.171V121.51L254.961 121.355C254.953 121.257 254.946 121.158 254.939 121.064V119.448H255.464C255.818 119.448 256.101 119.153 256.101 118.783C256.101 118.416 255.818 118.121 255.464 118.121H254.75C255.102 117.032 255.528 114.955 254.642 112.839C254.226 111.852 253.385 110.915 252.437 110.106C251.51 109.304 250.478 108.624 249.642 108.122C249.678 107.994 249.717 107.824 249.729 107.622C249.736 107.392 249.707 107.131 249.602 106.863L249.597 106.858C249.485 106.586 249.238 106.329 248.97 106.114C248.724 105.909 248.46 105.747 248.261 105.634L248.247 105.169C248.297 105.132 248.341 105.074 248.377 105.01C248.413 104.938 248.431 104.85 248.431 104.765C248.431 104.67 248.41 104.58 248.362 104.504C248.326 104.437 248.271 104.372 248.206 104.33L248.192 103.937C248.228 103.9 248.26 103.858 248.289 103.809C248.317 103.749 248.332 103.682 248.332 103.612C248.332 103.533 248.317 103.461 248.277 103.397C248.251 103.345 248.205 103.303 248.162 103.265L248.14 102.845L248.006 99.6296C248.002 99.595 247.977 99.5695 247.938 99.5649C247.898 99.5604 247.869 99.592 247.866 99.6296L247.725 102.845L247.706 103.265C247.659 103.303 247.62 103.345 247.591 103.397C247.555 103.462 247.533 103.533 247.533 103.612C247.533 103.68 247.548 103.748 247.581 103.809C247.603 103.859 247.639 103.9 247.679 103.937L247.66 104.33C247.598 104.372 247.545 104.435 247.507 104.504C247.46 104.58 247.435 104.671 247.435 104.765C247.435 104.852 247.461 104.939 247.497 105.01C247.526 105.074 247.569 105.13 247.627 105.169L247.605 105.634C247.409 105.747 247.143 105.909 246.899 106.114C246.635 106.329 246.389 106.586 246.274 106.858C246.161 107.126 246.132 107.391 246.147 107.622C246.154 107.822 246.194 107.992 246.23 108.122C245.394 108.624 244.362 109.304 243.439 110.106C242.486 110.915 241.645 111.852 241.229 112.839C240.341 114.955 240.769 117.033 241.121 118.121H240.513C240.161 118.121 239.878 118.416 239.878 118.783C239.878 119.153 240.161 119.448 240.513 119.448H241.02V121.356V125.521C240.481 125.664 240.079 126.175 240.079 126.775C240.079 127.305 240.56 127.528 240.991 127.732H240.626V132.679H235.716C237.866 126.795 241.514 113.388 235.593 99.3333C233.08 93.362 227.992 87.6976 222.245 82.7582C216.635 77.9406 210.396 73.8164 205.322 70.7781C205.554 69.9959 205.786 68.9416 205.844 67.7428C205.913 66.356 205.746 64.7692 205.073 63.1629L205.061 63.1358C204.367 61.4813 202.885 59.9276 201.281 58.6235C199.789 57.4142 198.185 56.4095 196.993 55.7251L196.87 52.932C197.193 52.6673 197.464 52.3319 197.656 51.9528C197.888 51.5076 198.015 51.0008 198.015 50.4713C198.015 49.8817 197.862 49.3297 197.595 48.8649C197.36 48.4528 197.034 48.1009 196.654 47.8376L196.549 45.4341C196.791 45.2265 196.994 44.9648 197.147 44.679H197.143L197.147 44.6745C197.331 44.3151 197.432 43.9075 197.432 43.4803C197.432 43.0035 197.31 42.5658 197.095 42.1883L197.091 42.1838C196.909 41.8664 196.664 41.5942 196.374 41.3821L196.266 38.8311L195.436 19.6374C197.156 19.6976 198.894 19.4524 200.495 18.4883C202.176 17.479 203.443 16.017 204.243 14.3355C203.572 15.2469 202.722 16.0471 201.707 16.6563C197.605 19.1275 192.354 17.661 189.989 13.3804C187.614 9.09822 189.023 3.62331 193.128 1.14757C194.143 0.535408 195.226 0.165399 196.322 0.017998C194.527 -0.094809 192.672 0.320326 191 1.32957C186.458 4.06251 184.901 10.124 187.523 14.8664C189.062 17.652 191.725 19.1937 194.564 19.5757L193.738 38.8341L193.626 41.3881C193.333 41.5957 193.087 41.8679 192.905 42.1898C192.692 42.5673 192.565 43.0095 192.565 43.4818C192.565 43.909 192.67 44.3166 192.855 44.676C193.003 44.9663 193.209 45.228 193.453 45.4356L193.352 47.8391C192.968 48.1039 192.643 48.4558 192.406 48.8664C192.138 49.3312 191.987 49.8832 191.987 50.4728C191.987 51.0023 192.114 51.5076 192.341 51.9543C192.537 52.3319 192.808 52.6688 193.131 52.9335L193.012 55.7266C191.82 56.411 190.213 57.4157 188.724 58.625C187.115 59.9291 185.638 61.4813 184.936 63.1373V63.1418C184.258 64.7512 184.088 66.347 184.158 67.7443C184.215 68.9416 184.443 69.996 184.679 70.7796C179.606 73.8179 173.362 77.9406 167.752 82.7597C162.01 87.6991 156.92 93.3636 154.404 99.3348C148.483 113.392 152.132 126.797 154.287 132.681H149.369V127.734H149.007C149.438 127.529 149.92 127.306 149.92 126.777C149.92 126.165 149.508 125.647 148.96 125.518V122.173V121.511L148.979 121.356C148.967 121.258 148.96 121.159 148.96 121.066V119.449H149.482C149.836 119.449 150.123 119.154 150.123 118.784C150.123 118.417 149.838 118.122 149.482 118.122H148.768C149.123 117.033 149.551 114.956 148.66 112.84C148.244 111.853 147.4 110.916 146.455 110.107C145.528 109.305 144.496 108.626 143.656 108.123C143.699 107.995 143.735 107.825 143.747 107.624C143.758 107.394 143.732 107.132 143.62 106.864V106.86C143.5 106.588 143.258 106.33 142.993 106.115C142.743 105.911 142.478 105.748 142.286 105.635L142.261 105.171C142.315 105.133 142.359 105.076 142.395 105.011C142.428 104.939 142.449 104.852 142.449 104.766C142.449 104.671 142.423 104.581 142.382 104.506C142.346 104.438 142.291 104.374 142.229 104.331L142.207 103.939C142.25 103.901 142.286 103.859 142.312 103.811C142.341 103.751 142.356 103.683 142.356 103.614C142.356 103.534 142.337 103.462 142.298 103.399C142.269 103.346 142.233 103.304 142.183 103.267L142.165 102.847L142.027 99.6311C142.023 99.5965 141.994 99.571 141.958 99.5664C141.922 99.5619 141.886 99.5935 141.881 99.6311L141.745 102.847L141.726 103.267C141.683 103.304 141.635 103.346 141.606 103.399C141.573 103.464 141.549 103.534 141.549 103.614C141.549 103.682 141.57 103.749 141.602 103.811C141.623 103.861 141.657 103.901 141.7 103.939L141.685 104.331C141.616 104.374 141.566 104.437 141.525 104.506C141.482 104.581 141.453 104.673 141.453 104.766C141.453 104.853 141.479 104.941 141.518 105.011C141.549 105.076 141.59 105.132 141.645 105.171L141.626 105.635C141.427 105.748 141.162 105.911 140.917 106.115C140.649 106.33 140.407 106.588 140.287 106.86C140.179 107.128 140.153 107.392 140.161 107.624C140.175 107.824 140.208 107.994 140.251 108.123C139.412 108.626 138.379 109.305 137.452 110.107C136.507 110.916 135.666 111.853 135.25 112.84C134.355 114.956 134.786 117.035 135.142 118.122H134.534C134.186 118.122 133.892 118.417 133.892 118.784C133.892 119.154 134.186 119.449 134.534 119.449H135.037V121.358V125.523C134.497 125.665 134.095 126.177 134.095 126.777C134.095 127.306 134.574 127.529 135.008 127.734H134.646V132.681H130.413V124.438C130.952 124.031 131.365 123.463 131.365 122.711C131.365 121.645 130.645 120.755 129.692 120.52V114.723V113.579L129.728 113.311C129.709 113.136 129.699 112.966 129.692 112.804V110H130.604C131.213 110 131.708 109.483 131.708 108.851C131.708 108.219 131.213 107.699 130.604 107.699H129.362C129.975 105.813 130.721 102.205 129.173 98.5346C128.448 96.826 126.992 95.2016 125.349 93.7877C123.741 92.4085 121.952 91.2262 120.501 90.3569C120.565 90.1298 120.627 89.8319 120.649 89.4875C120.671 89.0904 120.62 88.6332 120.429 88.1729V88.1654C120.225 87.6931 119.802 87.2434 119.339 86.8734C118.915 86.5259 118.455 86.2417 118.115 86.0461L118.079 85.2444C118.17 85.1692 118.246 85.0745 118.304 84.9617C118.369 84.8414 118.405 84.694 118.405 84.539C118.405 84.3721 118.362 84.2142 118.285 84.0773C118.216 83.9645 118.125 83.8577 118.017 83.787L117.988 83.0996C118.058 83.0395 118.115 82.9642 118.158 82.88C118.209 82.7777 118.238 82.6604 118.238 82.5356C118.238 82.4002 118.205 82.2754 118.14 82.1656C118.089 82.0783 118.02 81.9956 117.938 81.9354L117.908 81.206L117.665 75.6318C117.661 75.5671 117.612 75.5145 117.55 75.5145C117.478 75.51 117.42 75.5641 117.42 75.6318L117.178 81.206L117.148 81.9354C117.064 81.9956 116.997 82.0783 116.945 82.1656C116.88 82.2754 116.844 82.4002 116.844 82.5356C116.844 82.6604 116.873 82.7777 116.928 82.88C116.971 82.9627 117.028 83.0395 117.102 83.0996L117.07 83.787C116.958 83.8592 116.867 83.9645 116.802 84.0773C116.726 84.2127 116.682 84.3721 116.682 84.539C116.682 84.694 116.716 84.8414 116.783 84.9617C116.838 85.0745 116.913 85.1692 117.011 85.2444L116.971 86.0461C116.631 86.2432 116.171 86.5259 115.747 86.8734C115.283 87.2434 114.856 87.6931 114.66 88.1654C114.469 88.6302 114.418 89.0919 114.435 89.4875C114.454 89.8319 114.522 90.1298 114.584 90.3569C113.128 91.2262 111.347 92.4085 109.735 93.7877C108.095 95.2016 106.635 96.826 105.911 98.5346C104.369 102.205 105.111 105.813 105.723 107.699H104.672C104.064 107.699 103.563 108.221 103.563 108.851C103.563 109.483 104.064 110 104.672 110H105.548V113.311V120.529C104.611 120.779 103.908 121.666 103.908 122.713C103.908 123.465 104.322 124.032 104.865 124.44V132.682H102.792V158.53H99.0621V157.351H99.4455C100.31 157.351 101.025 156.611 101.025 155.699C101.025 154.797 100.312 154.052 99.4455 154.052H98.598C100.181 150.149 104.225 137.954 98.9813 125.499C97.8268 122.763 95.9243 120.147 93.7262 117.631V70.1749C93.9222 70.0396 94.052 69.8049 94.052 69.5402C94.052 69.1732 93.8098 68.8679 93.4797 68.7882V66.7968V66.4042L93.4913 66.3139C93.4841 66.2538 93.4841 66.1966 93.4797 66.1395V65.1753H93.7911C94.0015 65.1753 94.1673 65.0009 94.1673 64.7783C94.1673 64.5662 94.0001 64.3857 93.7911 64.3857H93.3644C93.5749 63.7389 93.8314 62.4995 93.2996 61.2421C93.0531 60.657 92.553 60.0975 91.988 59.6132C91.4345 59.1409 90.8219 58.7333 90.3218 58.4385C90.3477 58.3588 90.3693 58.2565 90.3765 58.1407C90.3837 58.0053 90.365 57.8459 90.2958 57.691V57.6864C90.2266 57.524 90.0825 57.3721 89.9268 57.2412C89.7813 57.1239 89.6227 57.0216 89.5031 56.9585L89.4887 56.6832C89.5247 56.6607 89.5463 56.6261 89.5723 56.5885C89.5939 56.5433 89.6054 56.4937 89.6054 56.4456C89.6054 56.3884 89.591 56.3328 89.5651 56.2861C89.5434 56.244 89.5103 56.2109 89.4714 56.1839L89.4598 55.9462L89.5175 55.874C89.5391 55.8364 89.5434 55.7988 89.5434 55.7567C89.5434 55.7071 89.5391 55.6664 89.5175 55.6288C89.4959 55.5988 89.4714 55.5687 89.4411 55.5491L89.4339 55.2994L89.3503 53.3878L89.3071 53.3456C89.2898 53.3411 89.2667 53.3607 89.2667 53.3607L89.1831 55.2994L89.1716 55.5491C89.1427 55.5687 89.1168 55.5988 89.1024 55.6288C89.0808 55.6664 89.0663 55.7086 89.0663 55.7567C89.0663 55.7988 89.0779 55.8364 89.0952 55.874L89.1572 55.9462L89.1427 56.1839C89.1024 56.2109 89.0764 56.244 89.0476 56.2861C89.0217 56.3313 89.0073 56.3884 89.0073 56.4456C89.0073 56.4952 89.0217 56.5433 89.0433 56.5885C89.062 56.6261 89.0909 56.6607 89.1226 56.6832L89.1081 56.9585C88.9928 57.0231 88.8329 57.1254 88.6916 57.2412C88.5287 57.3736 88.3831 57.524 88.3154 57.6864C88.2505 57.8459 88.2318 58.0008 88.239 58.1392C88.2462 58.2565 88.2678 58.3588 88.2895 58.437C87.7893 58.7318 87.1782 59.1394 86.6276 59.6117C86.0626 60.096 85.5624 60.654 85.316 61.2406C84.7841 62.4995 85.0378 63.7389 85.2439 64.3842H84.8893C84.6789 64.3842 84.5059 64.5662 84.5059 64.7767C84.5059 64.9994 84.6789 65.1738 84.8893 65.1738H85.1863V66.3109V68.7867C84.8634 68.8739 84.6285 69.1762 84.6285 69.5387C84.6285 69.8034 84.7553 70.0381 84.9542 70.1734V109.585C81.2889 106.751 77.5443 104.186 74.3474 102.265C74.5318 101.626 74.7235 100.773 74.7668 99.8011C74.8216 98.6595 74.6875 97.3629 74.1369 96.0529C73.5647 94.7037 72.3626 93.4373 71.0553 92.3799C69.846 91.3977 68.5359 90.578 67.5673 90.026L67.4693 87.7503C67.7301 87.5352 67.9507 87.263 68.1107 86.9486C68.2952 86.5891 68.396 86.177 68.396 85.7468C68.396 85.27 68.2764 84.8203 68.0559 84.4398C67.8671 84.1028 67.599 83.8156 67.2877 83.605L67.2041 81.6557C67.403 81.4812 67.5702 81.2737 67.6898 81.0315C67.8426 80.7412 67.9247 80.4118 67.9247 80.0598C67.9247 79.6778 67.8238 79.3123 67.6494 79.0055C67.501 78.7483 67.2977 78.5287 67.0628 78.3587L66.972 76.2801L66.2917 60.457C66.2845 60.2569 66.1216 60.102 65.9299 60.1095C65.7454 60.1171 65.6042 60.269 65.6013 60.457L64.9195 76.2801L64.8287 78.3542C64.5895 78.5242 64.3906 78.7468 64.2421 79.001V79.0055C64.0677 79.3123 63.9639 79.6778 63.9639 80.0598C63.9639 80.4118 64.0504 80.7367 64.2032 81.0315V81.036C64.3185 81.2736 64.4886 81.4812 64.6846 81.6557L64.601 83.605C64.2897 83.8171 64.0259 84.1043 63.8371 84.4398C63.6194 84.8218 63.4926 85.2715 63.4926 85.7468C63.4926 86.177 63.5978 86.5891 63.7823 86.9486C63.9423 87.263 64.1628 87.5307 64.4237 87.7503L64.3257 90.026C63.3586 90.578 62.0484 91.3977 60.8376 92.3799C59.526 93.4373 58.3283 94.7037 57.7589 96.0529L57.7517 96.0724C57.2055 97.3765 57.0671 98.6685 57.1219 99.8026C57.1723 100.774 57.3568 101.629 57.5456 102.266C53.6857 104.58 49.0143 107.72 44.686 111.316V109.045H44.4582C44.7292 108.913 45.0333 108.773 45.0333 108.445C45.0333 108.053 44.7724 107.728 44.4251 107.643V105.523V105.103L44.4366 105.005C44.4294 104.941 44.4251 104.88 44.4251 104.823V103.796H44.758C44.9757 103.796 45.1602 103.606 45.1602 103.376C45.1602 103.146 44.9757 102.957 44.758 102.957H44.3011C44.526 102.265 44.8013 100.946 44.2363 99.6085C43.9682 98.9813 43.4363 98.3917 42.8353 97.8743C42.2515 97.372 41.5972 96.9373 41.0639 96.6199C41.0898 96.5402 41.1143 96.4304 41.1186 96.3025C41.1258 96.1597 41.1114 95.9927 41.0379 95.8227C40.9615 95.6453 40.8131 95.4858 40.643 95.3505C40.4873 95.2226 40.3172 95.1158 40.1904 95.0436L40.1789 94.7488C40.212 94.7217 40.2409 94.6887 40.2625 94.6511C40.2841 94.6014 40.2985 94.5488 40.2985 94.4916C40.2985 94.4345 40.2841 94.3788 40.2553 94.3247C40.2293 94.2826 40.1976 94.2449 40.1573 94.2149L40.1457 93.9652C40.1717 93.9426 40.189 93.9156 40.212 93.8855C40.2264 93.8479 40.2409 93.8058 40.2409 93.7606C40.2409 93.711 40.2221 93.6629 40.2048 93.6283C40.1861 93.5937 40.1573 93.5636 40.1284 93.541L40.1169 93.2733L40.0261 91.2368C40.0218 91.2142 40.0074 91.1946 40.0074 91.1946C40.0074 91.1946 39.9382 91.2142 39.9382 91.2368L39.8488 93.2733L39.8373 93.541C39.8041 93.5636 39.7825 93.5937 39.7652 93.6283C39.7436 93.6629 39.7249 93.711 39.7249 93.7606C39.7249 93.8058 39.7364 93.8479 39.758 93.8855C39.758 93.8855 39.794 93.9426 39.8229 93.9652L39.8085 94.2149C39.7724 94.2449 39.7364 94.2826 39.7104 94.3247C39.6816 94.3773 39.6672 94.4345 39.6672 94.4916C39.6672 94.5488 39.6816 94.6014 39.7032 94.6511C39.7205 94.6887 39.7494 94.7233 39.7854 94.7488L39.7753 95.0436C39.6485 95.1158 39.4784 95.2211 39.3256 95.3505C39.1555 95.4858 38.9999 95.6453 38.9278 95.8227C38.8586 95.9897 38.8413 96.1551 38.8485 96.3025C38.8528 96.4304 38.8773 96.5402 38.899 96.6199C38.37 96.9373 37.7185 97.372 37.1276 97.8743C36.5265 98.3917 35.9975 98.9813 35.7338 99.6085C35.1688 100.946 35.4397 102.265 35.6646 102.957H35.2812C35.0563 102.957 34.8762 103.146 34.8762 103.376C34.8762 103.606 35.0578 103.796 35.2812 103.796H35.5968V105.005V107.643C35.2596 107.734 35.003 108.059 35.003 108.445C35.003 108.774 35.3071 108.914 35.5781 109.045H35.3461V121.63C34.5058 122.919 33.4738 124.166 32.9131 125.496C27.6695 137.951 31.7139 150.146 33.3008 154.049H32.4533C31.5885 154.049 30.875 154.794 30.875 155.696C30.875 156.608 31.5885 157.348 32.4533 157.348H33.2431V158.527H28.3065V99.2761C28.4982 99.1438 28.6222 98.9167 28.6222 98.6595C28.6222 98.3075 28.3858 98.0052 28.0673 97.93V96.0108V95.6332L28.0788 95.543C28.0745 95.4828 28.0673 95.4302 28.0673 95.373V94.4435H28.3714C28.5746 94.4435 28.7404 94.269 28.7404 94.0615C28.7404 93.8494 28.5732 93.6794 28.3714 93.6794H27.9592C28.1653 93.0522 28.4118 91.8534 27.8986 90.6366C27.6594 90.0666 27.1751 89.5326 26.6317 89.0679C26.0984 88.6061 25.5017 88.2105 25.0203 87.9263C25.0462 87.8511 25.0635 87.7518 25.0707 87.639C25.0779 87.5066 25.0635 87.3562 24.9987 87.2013V87.1968C24.9309 87.0373 24.7882 86.8945 24.6412 86.7666C24.4999 86.6538 24.3443 86.559 24.2319 86.4989L24.2174 86.2266C24.2506 86.2041 24.2751 86.174 24.2751 86.174C24.3183 86.0988 24.3299 86.0461 24.3299 85.992C24.3299 85.9394 24.3155 85.8897 24.2895 85.8401C24.2679 85.8025 24.2347 85.7679 24.1987 85.7423L24.1872 85.5197C24.1872 85.5197 24.2304 85.4746 24.2419 85.4445C24.2636 85.4144 24.2708 85.3723 24.2708 85.3317C24.2708 85.2896 24.2636 85.2445 24.2419 85.2114C24.2203 85.1813 24.1973 85.1542 24.1728 85.1286L24.1583 84.891L24.082 83.047L24.0459 83.0049C24.02 83.0004 23.9984 83.0169 23.9984 83.047L23.922 84.891L23.9104 85.1286C23.8816 85.1557 23.8557 85.1813 23.8427 85.2114C23.8211 85.246 23.8067 85.2911 23.8067 85.3317C23.8067 85.3738 23.8168 85.4144 23.8355 85.4445C23.8499 85.4746 23.8686 85.4971 23.8686 85.4971L23.8831 85.7423C23.8499 85.7694 23.8139 85.8025 23.7966 85.8401C23.7721 85.8897 23.7533 85.9379 23.7533 85.992C23.7533 86.0446 23.7677 86.0973 23.7894 86.1394C23.7894 86.1394 23.8297 86.2041 23.8614 86.2266L23.8499 86.4989C23.7375 86.559 23.5818 86.6538 23.4449 86.7666C23.2921 86.8945 23.148 87.0388 23.086 87.1968C23.0168 87.3562 23.0067 87.5036 23.011 87.639C23.0139 87.7518 23.0355 87.8511 23.0615 87.9263C22.5772 88.209 21.9862 88.6061 21.4501 89.0679C20.9038 89.5326 20.4253 90.0651 20.1903 90.6366C19.6729 91.8534 19.9194 93.0507 20.1211 93.6794H19.7738C19.572 93.6794 19.4048 93.8494 19.4048 94.0615C19.4048 94.269 19.572 94.4435 19.7738 94.4435H20.0592V95.543V97.9345C19.7522 98.0142 19.5201 98.312 19.5201 98.6595C19.5201 98.9167 19.6469 99.1438 19.8358 99.2761V158.527H12.459V165.88H0V210H390V165.88H377.532V165.883ZM368.595 96.5462C368.595 96.5462 368.576 96.4409 368.674 96.3041C368.775 96.1762 368.736 96.0664 368.693 95.9295C368.465 95.2602 369.229 95.1324 369.66 94.8C369.902 95.0526 369.82 95.4497 369.657 95.9295C369.609 96.0649 369.569 96.1747 369.671 96.3041C369.769 96.4394 369.755 96.5462 369.755 96.5462V97.9149H368.596V96.5462H368.595ZM364.593 96.5462C364.593 96.5462 364.568 96.4409 364.67 96.3041C364.771 96.1762 364.732 96.0664 364.684 95.9295C364.39 95.0647 365.752 95.1023 365.908 94.445H365.915C366.071 95.1023 367.433 95.0647 367.139 95.9295C367.091 96.0649 367.052 96.1747 367.15 96.3041C367.251 96.4394 367.234 96.5462 367.234 96.5462V97.9149H364.593V96.5462ZM362.083 96.5462C362.083 96.5462 362.061 96.4409 362.159 96.3041C362.263 96.1762 362.224 96.0664 362.181 95.9295C362.018 95.4527 361.931 95.0602 362.166 94.8075C362.602 95.1324 363.361 95.2647 363.133 95.9295C363.086 96.0649 363.047 96.1747 363.145 96.3041C363.25 96.4394 363.228 96.5462 363.228 96.5462V97.9149H362.084V96.5462H362.083ZM352.932 106.114C352.932 106.114 352.91 105.996 353.018 105.849C353.13 105.706 353.083 105.584 353.032 105.441C352.786 104.701 353.622 104.562 354.093 104.198C354.354 104.477 354.265 104.912 354.086 105.441C354.036 105.584 353.992 105.706 354.1 105.849C354.213 105.996 354.191 106.114 354.191 106.114V107.625H352.932V106.114ZM348.521 106.114C348.521 106.114 348.495 105.996 348.608 105.849C348.72 105.706 348.672 105.584 348.622 105.441C348.299 104.485 349.795 104.527 349.972 103.802H349.977C350.151 104.527 351.65 104.486 351.324 105.441C351.274 105.584 351.231 105.706 351.343 105.849C351.451 105.996 351.434 106.114 351.434 106.114V107.625H348.522V106.114H348.521ZM345.748 106.114C345.748 106.114 345.722 105.996 345.831 105.849C345.947 105.706 345.901 105.584 345.853 105.441C345.671 104.912 345.582 104.47 345.849 104.195C346.32 104.557 347.168 104.694 346.917 105.441C346.866 105.584 346.819 105.706 346.931 105.849C347.039 105.996 347.018 106.114 347.018 106.114V107.625H345.746V106.114H345.748ZM280.436 116.345C280.436 116.345 280.374 116.015 280.68 115.615C280.98 115.215 280.857 114.886 280.723 114.486C280.039 112.457 282.353 112.074 283.646 111.077C284.381 111.837 284.122 113.039 283.627 114.486C283.493 114.886 283.374 115.215 283.678 115.615C283.982 116.015 283.917 116.345 283.917 116.345V120.464H280.436V116.345ZM268.362 116.345C268.362 116.345 268.3 116.015 268.604 115.615C268.908 115.215 268.782 114.886 268.645 114.486C267.764 111.87 271.865 111.992 272.339 110H272.353C272.825 111.992 276.927 111.871 276.04 114.486C275.906 114.886 275.779 115.215 276.083 115.615C276.388 116.015 276.326 116.345 276.326 116.345V120.464H268.362V116.345ZM261.062 111.088C262.366 112.077 264.651 112.467 263.966 114.486C263.832 114.886 263.71 115.215 264.014 115.615C264.315 116.015 264.256 116.345 264.256 116.345V120.464H260.805V116.345C260.805 116.345 260.743 116.015 261.047 115.615C261.352 115.215 261.229 114.886 261.091 114.486C260.602 113.049 260.348 111.85 261.062 111.088ZM252.646 123.109C252.646 123.109 252.614 122.919 252.791 122.689C252.961 122.459 252.889 122.269 252.817 122.039C252.415 120.867 253.756 120.645 254.498 120.07C254.925 120.512 254.776 121.2 254.494 122.039C254.41 122.269 254.341 122.459 254.515 122.689C254.69 122.919 254.656 123.109 254.656 123.109V125.485H252.647V123.109H252.646ZM245.686 123.109C245.686 123.109 245.652 122.919 245.827 122.689C246.004 122.459 245.932 122.269 245.853 122.039C245.345 120.527 247.711 120.595 247.982 119.451H247.986C248.261 120.595 250.626 120.527 250.116 122.039C250.036 122.269 249.968 122.459 250.141 122.689C250.311 122.919 250.282 123.109 250.282 123.109V125.485H245.687V123.109H245.686ZM241.333 123.109C241.333 123.109 241.297 122.919 241.47 122.689C241.644 122.459 241.575 122.269 241.498 122.039C241.213 121.207 241.063 120.515 241.477 120.078C242.226 120.645 243.548 120.875 243.153 122.039C243.074 122.269 243 122.459 243.179 122.689C243.358 122.919 243.316 123.109 243.316 123.109V125.485H241.331V123.109H241.333ZM146.658 123.109C146.658 123.109 146.625 122.919 146.799 122.689C146.974 122.459 146.905 122.269 146.825 122.039C146.43 120.867 147.766 120.645 148.509 120.07C148.933 120.512 148.788 121.2 148.502 122.039C148.427 122.269 148.353 122.459 148.53 122.689C148.705 122.919 148.667 123.109 148.667 123.109V125.485H146.658V123.109ZM139.702 123.109C139.702 123.109 139.666 122.919 139.839 122.689C140.014 122.459 139.944 122.269 139.865 122.039C139.355 120.527 141.719 120.595 141.991 119.451H142.003C142.278 120.595 144.639 120.527 144.129 122.039C144.049 122.269 143.98 122.459 144.154 122.689C144.332 122.919 144.296 123.109 144.296 123.109V125.485H139.704V123.109H139.702ZM135.342 123.109C135.342 123.109 135.309 122.919 135.479 122.689C135.661 122.459 135.587 122.269 135.508 122.039C135.225 121.207 135.084 120.515 135.493 120.078C136.24 120.645 137.557 120.875 137.167 122.039C137.088 122.269 137.018 122.459 137.193 122.689C137.367 122.919 137.33 123.109 137.33 123.109V125.485H135.342V123.109ZM125.71 116.345C125.71 116.345 125.649 116.015 125.952 115.615C126.253 115.215 126.129 114.886 125.992 114.486C125.307 112.457 127.625 112.074 128.918 111.077C129.65 111.837 129.397 113.039 128.904 114.486C128.77 114.886 128.643 115.215 128.947 115.615C129.251 116.015 129.189 116.345 129.189 116.345V120.464H125.708V116.345H125.71ZM113.635 116.345C113.635 116.345 113.571 116.015 113.875 115.615C114.179 115.215 114.056 114.886 113.922 114.486C113.039 111.87 117.139 111.992 117.609 110H117.627C118.101 111.992 122.2 111.871 121.314 114.486C121.179 114.886 121.057 115.215 121.357 115.615C121.658 116.015 121.603 116.345 121.603 116.345V120.464H113.637V116.345H113.635ZM106.335 111.088C107.635 112.077 109.924 112.467 109.239 114.486C109.105 114.886 108.983 115.215 109.287 115.615C109.591 116.015 109.526 116.345 109.526 116.345V120.464H106.079V116.345C106.079 116.345 106.014 116.015 106.321 115.615C106.625 115.215 106.505 114.886 106.368 114.486C105.875 113.049 105.622 111.85 106.335 111.088ZM42.978 106.111C42.978 106.111 42.952 105.998 43.0644 105.851C43.1725 105.703 43.1293 105.586 43.0789 105.438C42.8252 104.694 43.6727 104.554 44.1469 104.192C44.415 104.471 44.3213 104.913 44.1397 105.438C44.0936 105.586 44.0489 105.703 44.1584 105.851C44.2708 105.998 44.2449 106.111 44.2449 106.111V107.622H42.978V106.111ZM38.5646 106.111C38.5646 106.111 38.543 105.998 38.6554 105.851C38.7635 105.703 38.7202 105.586 38.6669 105.438C38.3484 104.482 39.8445 104.524 40.0174 103.799H40.0247C40.1947 104.524 41.6937 104.483 41.3723 105.438C41.3219 105.586 41.2743 105.703 41.3867 105.851C41.4991 105.998 41.4775 106.111 41.4775 106.111V107.622H38.566V106.111H38.5646ZM35.8044 106.111C35.8044 106.111 35.7785 105.998 35.8952 105.851C36.0033 105.703 35.9572 105.586 35.9067 105.438C35.7295 104.913 35.6358 104.474 35.8995 104.199C36.3737 104.554 37.2112 104.701 36.9618 105.438C36.9099 105.586 36.8638 105.703 36.9762 105.851C37.0843 105.998 37.067 106.111 37.067 106.111V107.622H35.8073V106.111H35.8044ZM26.7585 96.5462C26.7585 96.5462 26.7369 96.4409 26.8421 96.3041C26.9358 96.1762 26.8998 96.0664 26.8537 95.9295C26.6288 95.2602 27.3927 95.1324 27.8237 94.8C28.0658 95.0526 27.9794 95.4497 27.8194 95.9295C27.7761 96.0649 27.7286 96.1747 27.8338 96.3041C27.9303 96.4394 27.913 96.5462 27.913 96.5462V97.9149H26.7585V96.5462ZM22.7502 96.5462C22.7502 96.5462 22.7357 96.4409 22.8338 96.3041C22.9346 96.1762 22.8957 96.0664 22.8482 95.9295C22.5541 95.0647 23.9205 95.1023 24.0719 94.445H24.0791C24.2347 95.1023 25.5968 95.0647 25.2999 95.9295C25.2552 96.0649 25.212 96.1747 25.3143 96.3041C25.4195 96.4394 25.3979 96.5462 25.3979 96.5462V97.9149H22.7502V96.5462ZM20.248 96.5462C20.248 96.5462 20.2264 96.4409 20.3273 96.3041C20.4282 96.1762 20.3892 96.0664 20.3417 95.9295C20.1788 95.4527 20.0952 95.0602 20.3301 94.8075C20.764 95.1324 21.5221 95.2647 21.293 95.9295C21.2454 96.0649 21.2094 96.1747 21.3074 96.3041C21.4083 96.4394 21.3939 96.5462 21.3939 96.5462V97.9149H20.2465V96.5462H20.248ZM303.427 67.3533C303.427 67.3533 303.406 67.2404 303.511 67.1036C303.612 66.9682 303.568 66.8539 303.522 66.7185C303.29 66.0191 304.087 65.8913 304.525 65.5468C304.779 65.807 304.693 66.2192 304.521 66.7185C304.478 66.8539 304.435 66.9682 304.54 67.1036C304.641 67.2389 304.624 67.3533 304.624 67.3533V68.7671H303.429V67.3533H303.427ZM299.285 67.3533C299.285 67.3533 299.263 67.2404 299.366 67.1036C299.469 66.9682 299.426 66.8539 299.383 66.7185C299.079 65.8191 300.484 65.8612 300.647 65.1768H300.654C300.814 65.8612 302.222 65.8191 301.918 66.7185C301.871 66.8539 301.832 66.9682 301.932 67.1036C302.038 67.2389 302.016 67.3533 302.016 67.3533V68.7671H299.286V67.3533H299.285ZM296.692 67.3533C296.692 67.3533 296.67 67.2404 296.775 67.1036C296.876 66.9682 296.837 66.8539 296.79 66.7185C296.62 66.2237 296.536 65.8116 296.783 65.5514C297.225 65.8913 298.014 66.0236 297.774 66.7185C297.731 66.8539 297.683 66.9682 297.793 67.1036C297.894 67.2389 297.877 67.3533 297.877 67.3533V68.7671H296.692V67.3533ZM92.1133 67.3533C92.1133 67.3533 92.0874 67.2404 92.1926 67.1036C92.2978 66.9682 92.2546 66.8539 92.207 66.7185C91.975 66.0191 92.7677 65.8913 93.2102 65.5468C93.4639 65.807 93.3731 66.2192 93.2059 66.7185C93.1583 66.8539 93.1151 66.9682 93.2203 67.1036C93.3255 67.2389 93.3039 67.3533 93.3039 67.3533V68.7671H92.1133V67.3533ZM87.9666 67.3533C87.9666 67.3533 87.9493 67.2404 88.0502 67.1036C88.1554 66.9682 88.1122 66.8539 88.0646 66.7185C87.7634 65.8191 89.1687 65.8612 89.3316 65.1768H89.3359C89.4987 65.8612 90.9069 65.8191 90.6028 66.7185C90.5567 66.8539 90.512 66.9682 90.6172 67.1036C90.7181 67.2389 90.7008 67.3533 90.7008 67.3533V68.7671H87.9666V67.3533ZM85.3736 67.3533C85.3736 67.3533 85.352 67.2404 85.4601 67.1036C85.561 66.9682 85.5221 66.8539 85.4745 66.7185C85.3044 66.2237 85.218 65.8116 85.463 65.5514C85.9084 65.8913 86.6939 66.0236 86.4546 66.7185C86.4114 66.8539 86.3682 66.9682 86.4763 67.1036C86.5772 67.2389 86.5555 67.3533 86.5555 67.3533V68.7671H85.3707V67.3533H85.3736Z" fill="#FFD08A"/>
<rect y="210" width="390" height="286" fill="#FFD08A"/>
</svg>
