<svg width="20" height="20" viewBox="0 0 20 20" fill="none" xmlns="http://www.w3.org/2000/svg">
<path d="M18.8943 12.334C18.7981 12.2376 18.6774 12.1692 18.5453 12.1362C18.4132 12.1032 18.2745 12.1067 18.1443 12.1465C16.7142 12.5789 15.1936 12.6151 13.7445 12.2514C12.2955 11.8877 10.9722 11.1377 9.91579 10.0813C8.85936 9.02485 8.10934 7.7016 7.74564 6.25254C7.38194 4.80347 7.41818 3.28288 7.85052 1.85279C7.89065 1.72248 7.89449 1.5837 7.86163 1.45137C7.82878 1.31903 7.76048 1.19816 7.66406 1.10175C7.56765 1.00534 7.44678 0.937031 7.31445 0.904177C7.18212 0.871324 7.04333 0.875166 6.91302 0.915291C4.93586 1.52096 3.20009 2.73478 1.95271 4.38404C0.861846 5.83234 0.196447 7.55614 0.0312696 9.36176C-0.133908 11.1674 0.207679 12.9833 1.01765 14.6055C1.82763 16.2277 3.0739 17.5919 4.61646 18.5448C6.15901 19.4978 7.93673 20.0017 9.7499 20C11.8652 20.0065 13.9243 19.3188 15.6111 18.0425C17.2604 16.7951 18.4742 15.0593 19.0799 13.0822C19.1196 12.9523 19.1232 12.8142 19.0905 12.6824C19.0579 12.5507 18.99 12.4303 18.8943 12.334ZM14.7093 16.8444C13.1207 18.0408 11.1534 18.6232 9.16954 18.4843C7.18565 18.3454 5.31871 17.4945 3.9124 16.0883C2.50609 14.6822 1.65507 12.8153 1.51599 10.8314C1.37692 8.84753 1.95916 6.88019 3.15552 5.29154C3.93496 4.26222 4.94265 3.42784 6.09927 2.85404C6.03338 3.31644 6.00018 3.78291 5.9999 4.24998C6.00263 6.835 7.03073 9.31337 8.85862 11.1413C10.6865 12.9691 13.1649 13.9972 15.7499 14C16.2179 13.9998 16.6853 13.9666 17.1486 13.9006C16.5743 15.0574 15.7393 16.0651 14.7093 16.8444Z" fill="black"/>
</svg>
