<svg width="24" height="20" viewBox="0 0 24 20" fill="none" xmlns="http://www.w3.org/2000/svg">
<path d="M21 11C20.7444 10.9999 20.4908 11.0437 20.25 11.1294V11C20.25 7.08313 17.3372 5.14437 15.21 3.72875C13.89 2.84937 12.75 2.09375 12.75 1.25C12.75 1.05109 12.671 0.860322 12.5303 0.71967C12.3897 0.579018 12.1989 0.5 12 0.5C11.8011 0.5 11.6103 0.579018 11.4697 0.71967C11.329 0.860322 11.25 1.05109 11.25 1.25C11.25 2.09375 10.11 2.84937 8.79 3.72875C6.66281 5.14437 3.75 7.08313 3.75 11V11.1294C3.41069 11.0094 3.04754 10.9726 2.69105 11.022C2.33457 11.0714 1.99513 11.2056 1.70125 11.4134C1.40736 11.6211 1.16759 11.8963 1.00207 12.2159C0.836554 12.5355 0.750111 12.8901 0.75 13.25V18.5C0.75 18.6989 0.829018 18.8897 0.96967 19.0303C1.11032 19.171 1.30109 19.25 1.5 19.25H7.5C7.69891 19.25 7.88968 19.171 8.03033 19.0303C8.17098 18.8897 8.25 18.6989 8.25 18.5V15.5C8.25 15.3011 8.32902 15.1103 8.46967 14.9697C8.61032 14.829 8.80109 14.75 9 14.75C9.19891 14.75 9.38968 14.829 9.53033 14.9697C9.67098 15.1103 9.75 15.3011 9.75 15.5V18.5C9.75 18.6989 9.82902 18.8897 9.96967 19.0303C10.1103 19.171 10.3011 19.25 10.5 19.25H13.5C13.6989 19.25 13.8897 19.171 14.0303 19.0303C14.171 18.8897 14.25 18.6989 14.25 18.5V15.5C14.25 15.3011 14.329 15.1103 14.4697 14.9697C14.6103 14.829 14.8011 14.75 15 14.75C15.1989 14.75 15.3897 14.829 15.5303 14.9697C15.671 15.1103 15.75 15.3011 15.75 15.5V18.5C15.75 18.6989 15.829 18.8897 15.9697 19.0303C16.1103 19.171 16.3011 19.25 16.5 19.25H22.5C22.6989 19.25 22.8897 19.171 23.0303 19.0303C23.171 18.8897 23.25 18.6989 23.25 18.5V13.25C23.25 12.6533 23.0129 12.081 22.591 11.659C22.169 11.2371 21.5967 11 21 11ZM9.62156 4.9775C10.5281 4.37375 11.4028 3.78875 12 3.1025C12.5944 3.79156 13.4719 4.37656 14.3784 4.9775C16.2534 6.22625 18.3609 7.62969 18.7013 10.25H5.295C5.63906 7.62969 7.74375 6.22625 9.62156 4.9775ZM2.25 13.25C2.25 13.0511 2.32902 12.8603 2.46967 12.7197C2.61032 12.579 2.80109 12.5 3 12.5C3.19891 12.5 3.38968 12.579 3.53033 12.7197C3.67098 12.8603 3.75 13.0511 3.75 13.25V17.75H2.25V13.25ZM15 13.25C14.4033 13.25 13.831 13.4871 13.409 13.909C12.9871 14.331 12.75 14.9033 12.75 15.5V17.75H11.25V15.5C11.25 14.9033 11.0129 14.331 10.591 13.909C10.169 13.4871 9.59674 13.25 9 13.25C8.40326 13.25 7.83097 13.4871 7.40901 13.909C6.98705 14.331 6.75 14.9033 6.75 15.5V17.75H5.25V11.75H18.75V17.75H17.25V15.5C17.25 14.9033 17.0129 14.331 16.591 13.909C16.169 13.4871 15.5967 13.25 15 13.25ZM21.75 17.75H20.25V13.25C20.25 13.0511 20.329 12.8603 20.4697 12.7197C20.6103 12.579 20.8011 12.5 21 12.5C21.1989 12.5 21.3897 12.579 21.5303 12.7197C21.671 12.8603 21.75 13.0511 21.75 13.25V17.75Z" fill="#FAF6EB"/>
</svg>
