<svg width="20" height="21" viewBox="0 0 20 21" fill="none" xmlns="http://www.w3.org/2000/svg">
<path d="M11.2585 3.11587C10.7152 2.12837 9.28516 2.12837 8.741 3.11587C8.0254 4.41619 7.4355 5.78182 6.97933 7.1942C6.95782 7.24946 6.91997 7.29685 6.87084 7.33005C6.82171 7.36325 6.76362 7.38069 6.70433 7.38004C5.4818 7.41181 4.26325 7.53325 3.0585 7.74337C1.94433 7.93754 1.4535 9.2742 2.30016 10.1017C3.21003 10.9923 4.18252 11.8167 5.21016 12.5684C5.25105 12.5959 5.28191 12.636 5.29813 12.6826C5.31435 12.7291 5.31507 12.7797 5.30016 12.8267C4.84304 14.2001 4.51659 15.6136 4.32516 17.0484C4.16683 18.235 5.42266 18.9634 6.4035 18.46C7.59423 17.8498 8.73278 17.1427 9.80766 16.3459C9.86395 16.306 9.93121 16.2847 10.0002 16.2847C10.0691 16.2847 10.1364 16.306 10.1927 16.3459C11.2669 17.1436 12.4055 17.8508 13.5968 18.46C14.5777 18.9634 15.8343 18.235 15.676 17.0484C15.4842 15.6139 15.1575 14.2006 14.7002 12.8275C14.6854 12.7804 14.6864 12.7297 14.7029 12.6831C14.7194 12.6365 14.7506 12.5965 14.7918 12.5692C15.8189 11.8174 16.7908 10.9931 17.7002 10.1025C18.5468 9.2742 18.056 7.93754 16.9418 7.74337C15.7368 7.53321 14.518 7.41177 13.2952 7.38004C13.236 7.38052 13.1781 7.363 13.1291 7.32981C13.0802 7.29662 13.0425 7.24933 13.021 7.1942C12.5663 5.78128 11.9755 4.41551 11.2585 3.11587Z" fill="#FFD700"/>
</svg>
