<svg width="24" height="24" viewBox="0 0 24 24" fill="none" xmlns="http://www.w3.org/2000/svg">
<path d="M7.605 17.2568H4.125V4.01929H17.3625V5.53204" fill="#FEE7A1"/>
<path d="M4.125 4.02002V17.2575H5.2455V4.02002H4.125Z" fill="white"/>
<path d="M4.125 4.02004V5.15254H17.3625V4.01929L4.125 4.02004Z" fill="white"/>
<path d="M17.8191 18.8994L8.20937 20.6244L5.87012 7.59535L18.8999 5.2561L20.6249 14.8651" fill="#FFD28E"/>
<path d="M18.9008 5.6311L5.87109 7.97035L6.00159 8.69635L18.9001 6.3811L20.5171 15.3939L20.6243 15.2401L18.9008 5.6311Z" fill="white"/>
<path d="M18.9008 5.25612L5.87109 7.59537L8.21109 20.6251L9.29409 20.4301L6.99009 7.59537L18.9361 5.45037L18.9008 5.25612Z" fill="white"/>
<path d="M17.2051 15.4792L20.6251 14.865L17.8186 18.8992L17.2051 15.4792Z" fill="#BEA47E"/>
<path d="M20.9925 14.8965C20.994 14.8801 20.994 14.8635 20.9925 14.847C20.9925 14.8305 20.9962 14.8155 20.9932 14.799L19.2682 5.18927C19.2502 5.09171 19.1944 5.0052 19.1129 4.94848C19.0315 4.89177 18.931 4.86942 18.8332 4.88627L17.7382 5.08352V4.02002C17.7382 3.92056 17.6987 3.82518 17.6284 3.75485C17.5581 3.68453 17.4627 3.64502 17.3632 3.64502H4.125C4.02554 3.64502 3.93016 3.68453 3.85984 3.75485C3.78951 3.82518 3.75 3.92056 3.75 4.02002V17.2575C3.75 17.357 3.78951 17.4524 3.85984 17.5227C3.93016 17.593 4.02554 17.6325 4.125 17.6325H7.29075L7.83975 20.6925C7.85537 20.7789 7.90077 20.857 7.96806 20.9133C8.03534 20.9696 8.12025 21.0006 8.208 21.0008C8.2305 21.0008 8.253 21.0008 8.2755 20.9933L17.8845 19.2683C17.9092 19.2608 17.9295 19.2503 17.952 19.2413C17.9692 19.2338 17.9865 19.2308 18.003 19.221C18.0518 19.1943 18.094 19.1572 18.1267 19.1123L20.9317 15.0803C20.9679 15.0253 20.9887 14.9615 20.9917 14.8958L20.9925 14.8965ZM4.5 16.8825V4.39502H16.9875V5.22002L5.805 7.22552C5.75644 7.23403 5.71004 7.25204 5.66846 7.27853C5.62688 7.30503 5.59095 7.33947 5.56272 7.37989C5.5345 7.42032 5.51454 7.46591 5.50399 7.51407C5.49344 7.56223 5.49251 7.612 5.50125 7.66052L7.1565 16.8825H4.5ZM6.30525 7.89902L18.5977 5.69252L20.1892 14.5635L17.1382 15.111C17.0404 15.1289 16.9537 15.1848 16.8969 15.2664C16.8401 15.3481 16.818 15.4488 16.8352 15.5468L17.3835 18.5978L8.5125 20.19L6.30525 7.89902ZM18.0277 17.943L17.6392 15.783L19.8 15.3953L18.0277 17.943Z" fill="#444A54"/>
</svg>
