<svg width="20" height="20" viewBox="0 0 20 20" fill="none" xmlns="http://www.w3.org/2000/svg">
<path d="M10.8538 1.50009C10.7688 1.34833 10.6448 1.22199 10.4947 1.13405C10.3446 1.04611 10.1738 0.999756 9.99981 0.999756C9.82585 0.999756 9.65502 1.04611 9.50492 1.13405C9.35482 1.22199 9.23087 1.34833 9.14581 1.50009C8.3089 3.01772 7.62005 4.61241 7.08881 6.26209C6.94981 6.69309 6.53781 6.99209 6.06581 7.00509C4.63503 7.0427 3.2089 7.18474 1.79881 7.43009C1.02481 7.56609 0.73381 8.44809 1.28381 8.98609C2.35054 10.0296 3.49007 10.9961 4.69381 11.8781C5.06081 12.1471 5.21181 12.6081 5.07181 13.0301C4.5385 14.6331 4.15683 16.2827 3.93181 17.9571C3.83181 18.7121 4.63981 19.2451 5.34181 18.8851C6.73385 18.1713 8.06498 17.3445 9.32181 16.4131C9.51867 16.2694 9.75609 16.192 9.99981 16.192C10.2435 16.192 10.481 16.2694 10.6778 16.4131C11.9344 17.3449 13.2655 18.1717 14.6578 18.8851C15.3588 19.2451 16.1678 18.7121 16.0678 17.9571C15.8429 16.2824 15.4612 14.6325 14.9278 13.0291C14.7878 12.6091 14.9378 12.1471 15.3058 11.8781C16.5095 10.9961 17.6491 10.0296 18.7158 8.98609C19.2658 8.44809 18.9758 7.56609 18.2008 7.43009C16.7909 7.18331 15.3647 7.04126 13.9338 7.00509C13.7076 7.00149 13.488 6.92821 13.3049 6.79525C13.1218 6.66229 12.9842 6.47611 12.9108 6.26209C12.3795 4.61276 11.6907 3.0174 10.8538 1.50009Z" stroke="#777777" stroke-width="1.5" stroke-linecap="round" stroke-linejoin="round"/>
</svg>
