<svg width="14" height="21" viewBox="0 0 14 21" fill="none" xmlns="http://www.w3.org/2000/svg">
<path d="M9 0.5C10.3261 0.5 11.5979 1.02678 12.5355 1.96447C13.4732 2.90215 14 4.17392 14 5.5V19.5C14 19.681 13.9509 19.8587 13.8579 20.014C13.7648 20.1693 13.6314 20.2965 13.4718 20.3819C13.3121 20.4673 13.1323 20.5078 12.9515 20.499C12.7707 20.4902 12.5956 20.4325 12.445 20.332L7 16.702L1.556 20.332C1.4133 20.4275 1.2484 20.4847 1.0772 20.4979C0.906001 20.5112 0.734264 20.4802 0.578531 20.4079C0.422798 20.3355 0.288316 20.2243 0.188039 20.0849C0.0877628 19.9455 0.0250703 19.7827 0.00600004 19.612L0 19.5V5.5C0 4.17392 0.526784 2.90215 1.46447 1.96447C2.40215 1.02678 3.67392 0.5 5 0.5H9Z" fill="#A85000"/>
</svg>
