<svg width="347" height="136" viewBox="0 0 347 136" fill="none" xmlns="http://www.w3.org/2000/svg">
<path d="M5.99871 0C6.15895 1.34699 6.00387 2.78728 6.69653 4.029C7.06267 4.70847 7.86991 5.02748 8.62976 5.1806C9.74025 5.38476 10.8766 5.38077 12 5.47249C10.5372 5.63438 8.97695 5.47009 7.61835 6.09454C6.88176 6.40876 6.49752 7.13608 6.33039 7.8347C6.08572 8.87385 6.09692 9.9441 6.00129 11C5.85397 9.83245 5.92806 8.63141 5.54555 7.49656C5.39393 7.03002 5.13892 6.56826 4.69869 6.28116C4.08443 5.86885 3.30993 5.76358 2.57592 5.67665C1.7213 5.57297 0.859789 5.5331 0 5.47727C1.36205 5.34488 2.77493 5.42703 4.07926 4.97883C4.75813 4.74995 5.29657 4.21482 5.50248 3.57522C5.92548 2.42362 5.86259 1.19387 5.99871 0Z" fill="white"/>
<path d="M115.999 94C116.159 95.347 116.004 96.7873 116.697 98.029C117.063 98.7085 117.87 99.0275 118.63 99.1806C119.74 99.3848 120.877 99.3808 122 99.4725C120.537 99.6344 118.977 99.4701 117.618 100.095C116.882 100.409 116.498 101.136 116.33 101.835C116.086 102.874 116.097 103.944 116.001 105C115.854 103.832 115.928 102.631 115.546 101.497C115.394 101.03 115.139 100.568 114.699 100.281C114.084 99.8688 113.31 99.7636 112.576 99.6766C111.721 99.573 110.86 99.5331 110 99.4773C111.362 99.3449 112.775 99.427 114.079 98.9788C114.758 98.7499 115.297 98.2148 115.502 97.5752C115.925 96.4236 115.863 95.1939 115.999 94Z" fill="white"/>
<path d="M340.999 5C341.159 6.34699 341.004 7.78728 341.697 9.029C342.063 9.70847 342.87 10.0275 343.63 10.1806C344.74 10.3848 345.877 10.3808 347 10.4725C345.537 10.6344 343.977 10.4701 342.618 11.0945C341.882 11.4088 341.498 12.1361 341.33 12.8347C341.086 13.8738 341.097 14.9441 341.001 16C340.854 14.8325 340.928 13.6314 340.546 12.4966C340.394 12.03 340.139 11.5683 339.699 11.2812C339.084 10.8688 338.31 10.7636 337.576 10.6766C336.721 10.573 335.86 10.5331 335 10.4773C336.362 10.3449 337.775 10.427 339.079 9.97883C339.758 9.74995 340.297 9.21482 340.502 8.57522C340.925 7.42362 340.863 6.19387 340.999 5Z" fill="white"/>
<path d="M285.999 94C286.159 95.347 286.004 96.7873 286.697 98.029C287.063 98.7085 287.87 99.0275 288.63 99.1806C289.74 99.3848 290.877 99.3808 292 99.4725C290.537 99.6344 288.977 99.4701 287.618 100.095C286.882 100.409 286.498 101.136 286.33 101.835C286.086 102.874 286.097 103.944 286.001 105C285.854 103.832 285.928 102.631 285.546 101.497C285.394 101.03 285.139 100.568 284.699 100.281C284.084 99.8688 283.31 99.7636 282.576 99.6766C281.721 99.573 280.86 99.5331 280 99.4773C281.362 99.3449 282.775 99.427 284.079 98.9788C284.758 98.7499 285.297 98.2148 285.502 97.5752C285.925 96.4236 285.863 95.1939 285.999 94Z" fill="white"/>
<path d="M103.999 27C104.159 28.347 104.004 29.7873 104.697 31.029C105.063 31.7085 105.87 32.0275 106.63 32.1806C107.74 32.3848 108.877 32.3808 110 32.4725C108.537 32.6344 106.977 32.4701 105.618 33.0945C104.882 33.4088 104.498 34.1361 104.33 34.8347C104.086 35.8738 104.097 36.9441 104.001 38C103.854 36.8325 103.928 35.6314 103.546 34.4966C103.394 34.03 103.139 33.5683 102.699 33.2812C102.084 32.8688 101.31 32.7636 100.576 32.6766C99.7213 32.573 98.8598 32.5331 98 32.4773C99.3621 32.3449 100.775 32.427 102.079 31.9788C102.758 31.7499 103.297 31.2148 103.502 30.5752C103.925 29.4236 103.863 28.1939 103.999 27Z" fill="white"/>
<path d="M6.99871 125C7.15895 126.347 7.00387 127.787 7.69653 129.029C8.06267 129.708 8.86991 130.027 9.62976 130.181C10.7403 130.385 11.8766 130.381 13 130.472C11.5372 130.634 9.97695 130.47 8.61835 131.095C7.88176 131.409 7.49752 132.136 7.33039 132.835C7.08572 133.874 7.09692 134.944 7.00129 136C6.85397 134.832 6.92806 133.631 6.54555 132.497C6.39393 132.03 6.13892 131.568 5.69869 131.281C5.08443 130.869 4.30993 130.764 3.57592 130.677C2.7213 130.573 1.85979 130.533 1 130.477C2.36205 130.345 3.77493 130.427 5.07926 129.979C5.75813 129.75 6.29657 129.215 6.50248 128.575C6.92548 127.424 6.86259 126.194 6.99871 125Z" fill="white"/>
<path d="M255.999 16C256.159 17.347 256.004 18.7873 256.697 20.029C257.063 20.7085 257.87 21.0275 258.63 21.1806C259.74 21.3848 260.877 21.3808 262 21.4725C260.537 21.6344 258.977 21.4701 257.618 22.0945C256.882 22.4088 256.498 23.1361 256.33 23.8347C256.086 24.8738 256.097 25.9441 256.001 27C255.854 25.8325 255.928 24.6314 255.546 23.4966C255.394 23.03 255.139 22.5683 254.699 22.2812C254.084 21.8688 253.31 21.7636 252.576 21.6766C251.721 21.573 250.86 21.5331 250 21.4773C251.362 21.3449 252.775 21.427 254.079 20.9788C254.758 20.7499 255.297 20.2148 255.502 19.5752C255.925 18.4236 255.863 17.1939 255.999 16Z" fill="white"/>
</svg>
