<svg width="20" height="20" viewBox="0 0 20 20" fill="none" xmlns="http://www.w3.org/2000/svg">
<path d="M13.5 15.5C13.5 15.0404 13.4095 14.5852 13.2336 14.1606C13.0577 13.736 12.7999 13.3501 12.4749 13.0251C12.1499 12.7001 11.764 12.4423 11.3394 12.2664C10.9148 12.0905 10.4596 12 10 12C9.54037 12 9.08525 12.0905 8.66061 12.2664C8.23597 12.4423 7.85013 12.7001 7.52513 13.0251C7.20012 13.3501 6.94231 13.736 6.76642 14.1606C6.59053 14.5852 6.5 15.0404 6.5 15.5M9.9 1V8M9.9 1L6.3 4.6M9.9 1L13.5 4.6M3.898 9.398L5.176 10.676M1 15.4H2.8M17 15.4H18.8M14.624 10.676L15.902 9.398M19 19H1" stroke="black" stroke-width="1.5" stroke-linecap="round" stroke-linejoin="round"/>
</svg>
