<svg width="20" height="19" viewBox="0 0 20 19" fill="none" xmlns="http://www.w3.org/2000/svg">
<path fill-rule="evenodd" clip-rule="evenodd" d="M6 14C6.00004 13.3316 6.16756 12.6739 6.48726 12.0869C6.80697 11.5 7.26866 11.0025 7.83016 10.6399C8.39166 10.2773 9.03506 10.0612 9.70159 10.0114C10.3681 9.9615 11.0365 10.0795 11.6457 10.3544C12.2549 10.6294 12.7855 11.0527 13.189 11.5856C13.5924 12.1184 13.856 12.7439 13.9554 13.4048C14.0549 14.0658 13.9872 14.7411 13.7585 15.3691C13.5297 15.9972 13.1473 16.5579 12.646 17H7.354C6.92782 16.6251 6.58657 16.1636 6.35307 15.6462C6.11957 15.1288 5.9992 14.5676 6 14ZM6.97 19H19C19.2652 19 19.5196 18.8946 19.7071 18.7071C19.8946 18.5196 20 18.2652 20 18C20 17.7348 19.8946 17.4804 19.7071 17.2929C19.5196 17.1054 19.2652 17 19 17H15.197C15.7233 16.0879 16.0002 15.0533 16 14.0002C15.9998 12.9471 15.7224 11.9127 15.1957 11.0007C14.6691 10.0888 13.9117 9.33158 12.9996 8.8051C12.0876 8.27863 11.0531 8.00147 10 8.00147C8.94692 8.00147 7.9124 8.27863 7.00037 8.8051C6.08834 9.33158 5.33094 10.0888 4.80427 11.0007C4.2776 11.9127 4.00022 12.9471 4 14.0002C3.99978 15.0533 4.27672 16.0879 4.803 17H1C0.734784 17 0.48043 17.1054 0.292893 17.2929C0.105357 17.4804 0 17.7348 0 18C0 18.2652 0.105357 18.5196 0.292893 18.7071C0.48043 18.8946 0.734784 19 1 19H6.97ZM17.071 6.929C17.2585 7.11653 17.3638 7.37084 17.3638 7.636C17.3638 7.90116 17.2585 8.15547 17.071 8.343L16.364 9.05C16.1754 9.23216 15.9228 9.33295 15.6606 9.33067C15.3984 9.3284 15.1476 9.22323 14.9622 9.03782C14.7768 8.85241 14.6716 8.6016 14.6693 8.3394C14.667 8.0772 14.7678 7.8246 14.95 7.636L15.657 6.929C15.8445 6.74153 16.0988 6.63621 16.364 6.63621C16.6292 6.63621 16.8835 6.74153 17.071 6.929ZM2 15C2.26522 15 2.51957 14.8946 2.70711 14.7071C2.89464 14.5196 3 14.2652 3 14C3 13.7348 2.89464 13.4804 2.70711 13.2929C2.51957 13.1054 2.26522 13 2 13H1C0.734784 13 0.48043 13.1054 0.292893 13.2929C0.105357 13.4804 0 13.7348 0 14C0 14.2652 0.105357 14.5196 0.292893 14.7071C0.48043 14.8946 0.734784 15 1 15H2ZM20 14C20 14.2652 19.8946 14.5196 19.7071 14.7071C19.5196 14.8946 19.2652 15 19 15H18C17.7348 15 17.4804 14.8946 17.2929 14.7071C17.1054 14.5196 17 14.2652 17 14C17 13.7348 17.1054 13.4804 17.2929 13.2929C17.4804 13.1054 17.7348 13 18 13H19C19.2652 13 19.5196 13.1054 19.7071 13.2929C19.8946 13.4804 20 13.7348 20 14ZM3.636 9.05C3.8246 9.23216 4.0772 9.33295 4.3394 9.33067C4.6016 9.3284 4.85241 9.22323 5.03782 9.03782C5.22323 8.85241 5.3284 8.6016 5.33067 8.3394C5.33295 8.0772 5.23216 7.8246 5.05 7.636L4.343 6.929C4.25075 6.83349 4.14041 6.75731 4.0184 6.7049C3.8964 6.65249 3.76518 6.6249 3.6324 6.62375C3.49962 6.6226 3.36794 6.6479 3.24505 6.69818C3.12215 6.74846 3.0105 6.82271 2.9166 6.9166C2.82271 7.0105 2.74846 7.12215 2.69818 7.24505C2.6479 7.36794 2.6226 7.49962 2.62375 7.6324C2.6249 7.76518 2.65249 7.8964 2.7049 8.0184C2.75731 8.14041 2.83349 8.25075 2.929 8.343L3.636 9.05ZM11 3.586V1C11 0.734784 10.8946 0.48043 10.7071 0.292893C10.5196 0.105357 10.2652 0 10 0C9.73478 0 9.48043 0.105357 9.29289 0.292893C9.10536 0.48043 9 0.734784 9 1V3.586L8.707 3.293C8.5184 3.11084 8.2658 3.01005 8.0036 3.01233C7.7414 3.0146 7.49059 3.11977 7.30518 3.30518C7.11977 3.49059 7.0146 3.7414 7.01233 4.0036C7.01005 4.2658 7.11084 4.5184 7.293 4.707L9.292 6.706L9.302 6.716C9.49013 6.90044 9.74361 7.00292 10.0071 7.00105C10.2705 6.99917 10.5225 6.8931 10.708 6.706L12.708 4.707C12.8955 4.51936 13.0008 4.26492 13.0007 3.99965C13.0006 3.73438 12.8951 3.48001 12.7075 3.2925C12.5199 3.10499 12.2654 2.9997 12.0001 2.9998C11.7349 2.99989 11.4805 3.10536 11.293 3.293L11 3.586Z" fill="black"/>
</svg>
