<svg width="24" height="24" viewBox="0 0 24 24" fill="none" xmlns="http://www.w3.org/2000/svg">
<path fill-rule="evenodd" clip-rule="evenodd" d="M5.6465 5.9395C7.3305 4.423 9.558 3.5 12 3.5C14.442 3.5 16.6695 4.423 18.3535 5.9395L18.778 5.5145L17.7175 4.454C17.5225 4.259 17.5225 3.942 17.7175 3.747C17.9125 3.552 18.2295 3.552 18.4245 3.747L21.253 6.5755C21.448 6.7705 21.448 7.0875 21.253 7.2825C21.058 7.4775 20.741 7.4775 20.546 7.2825L19.4855 6.222L19.0605 6.6465C20.577 8.3305 21.5 10.558 21.5 13C21.5 18.243 17.243 22.5 12 22.5C6.757 22.5 2.5 18.243 2.5 13C2.5 10.558 3.423 8.3305 4.9395 6.6465L4.5145 6.222L3.45399 7.2825C3.25899 7.4775 2.94199 7.4775 2.74699 7.2825C2.55199 7.0875 2.55199 6.7705 2.74699 6.5755L5.5755 3.747C5.7705 3.552 6.0875 3.552 6.2825 3.747C6.4775 3.942 6.4775 4.259 6.2825 4.454L5.222 5.5145L5.6465 5.9395ZM12 4.5C7.3085 4.5 3.5 8.3085 3.5 13C3.5 17.6915 7.3085 21.5 12 21.5C16.6915 21.5 20.5 17.6915 20.5 13C20.5 8.3085 16.6915 4.5 12 4.5ZM11.5 5.5165C10.839 5.56 10.201 5.6895 9.5975 5.8935L9.783 6.3415C9.889 6.5965 9.7675 6.889 9.5125 6.995C9.2575 7.1005 8.965 6.979 8.8595 6.724L8.674 6.277C8.09 6.567 7.549 6.9305 7.063 7.356L7.40401 7.6965C7.59901 7.892 7.59901 8.2085 7.40401 8.404C7.20851 8.599 6.892 8.599 6.6965 8.404L6.356 8.063C5.9305 8.549 5.56699 9.09 5.27699 9.674L5.724 9.8595C5.979 9.965 6.1005 10.2575 5.995 10.5125C5.889 10.7675 5.59651 10.889 5.34151 10.783L4.89349 10.5975C4.68949 11.2015 4.55999 11.839 4.51649 12.5H5C5.276 12.5 5.5 12.724 5.5 13C5.5 13.276 5.276 13.5 5 13.5H4.51649C4.55999 14.161 4.68949 14.7985 4.89349 15.4025L5.34151 15.217C5.59651 15.111 5.889 15.2325 5.995 15.4875C6.1005 15.7425 5.979 16.035 5.724 16.1405L5.27699 16.326C5.56699 16.91 5.9305 17.451 6.356 17.937L6.6965 17.596C6.892 17.401 7.20851 17.401 7.40401 17.596C7.59901 17.7915 7.59901 18.108 7.40401 18.3035L7.063 18.644C7.549 19.0695 8.09 19.433 8.674 19.723L8.8595 19.276C8.965 19.021 9.2575 18.8995 9.5125 19.005C9.7675 19.111 9.889 19.4035 9.783 19.6585L9.5975 20.1065C10.2015 20.3105 10.839 20.44 11.5 20.4835V20C11.5 19.724 11.724 19.5 12 19.5C12.276 19.5 12.5 19.724 12.5 20V20.4835C13.161 20.44 13.7985 20.3105 14.4025 20.1065L14.217 19.6585C14.111 19.4035 14.2325 19.111 14.4875 19.005C14.7425 18.8995 15.035 19.021 15.1405 19.276L15.326 19.723C15.91 19.433 16.451 19.0695 16.937 18.644L16.596 18.3035C16.401 18.108 16.401 17.7915 16.596 17.596C16.7915 17.401 17.108 17.401 17.3035 17.596L17.644 17.937C18.0695 17.451 18.433 16.91 18.723 16.326L18.276 16.1405C18.021 16.035 17.8995 15.7425 18.005 15.4875C18.111 15.2325 18.4035 15.111 18.6585 15.217L19.1065 15.4025C19.3105 14.7985 19.44 14.161 19.4835 13.5H19C18.724 13.5 18.5 13.276 18.5 13C18.5 12.724 18.724 12.5 19 12.5H19.4835C19.44 11.839 19.3105 11.2015 19.1065 10.5975L18.6585 10.783C18.4035 10.889 18.111 10.7675 18.005 10.5125C17.8995 10.2575 18.021 9.965 18.276 9.8595L18.723 9.674C18.433 9.09 18.0695 8.549 17.644 8.063L17.3035 8.404C17.108 8.599 16.7915 8.599 16.596 8.404C16.401 8.2085 16.401 7.892 16.596 7.6965L16.937 7.356C16.451 6.9305 15.91 6.567 15.326 6.277L15.1405 6.724C15.035 6.979 14.7425 7.1005 14.4875 6.995C14.2325 6.889 14.111 6.5965 14.217 6.3415L14.4025 5.8935C13.7985 5.6895 13.161 5.56 12.5 5.5165V6C12.5 6.276 12.276 6.5 12 6.5C11.724 6.5 11.5 6.276 11.5 6V5.5165ZM11.5 11.5855V8C11.5 7.724 11.724 7.5 12 7.5C12.276 7.5 12.5 7.724 12.5 8V11.5855C13.0825 11.7915 13.5 12.3475 13.5 13C13.5 13.2315 13.4475 13.451 13.3535 13.6465L15.3535 15.6465C15.5485 15.8415 15.5485 16.1585 15.3535 16.3535C15.1585 16.5485 14.8415 16.5485 14.6465 16.3535L12.6465 14.3535C12.451 14.4475 12.2315 14.5 12 14.5C11.172 14.5 10.5 13.828 10.5 13C10.5 12.3475 10.9175 11.7915 11.5 11.5855ZM12 12.5C12.276 12.5 12.5 12.724 12.5 13C12.5 13.276 12.276 13.5 12 13.5C11.724 13.5 11.5 13.276 11.5 13C11.5 12.724 11.724 12.5 12 12.5ZM10.554 2.599C11.0275 2.5335 11.5095 2.5 12 2.5C12.4905 2.5 12.9725 2.5335 13.446 2.599C13.2705 1.965 12.6895 1.5 12 1.5C11.3105 1.5 10.7295 1.965 10.554 2.599Z" fill="#A85000"/>
</svg>
