<svg width="24" height="24" viewBox="0 0 24 24" fill="none" xmlns="http://www.w3.org/2000/svg">
<g clip-path="url(#clip0_37_1171)">
<path d="M14.5503 5.34C14.5503 2.6025 12.3228 0.375 9.59277 0.375C6.85527 0.375 4.62777 2.6025 4.62777 5.34C4.62777 8.07 6.85527 10.2975 9.59277 10.2975C12.3228 10.2975 14.5503 8.07 14.5503 5.34ZM9.59277 10.875C4.83027 10.875 0.967773 14.745 0.967773 19.5V21C0.967773 22.4475 2.14527 23.625 3.59277 23.625H15.5928C17.0328 23.625 18.2178 22.4475 18.2178 21V19.5C18.2178 14.745 14.3478 10.875 9.59277 10.875ZM21.1158 6.1125L18.3288 8.8995L17.3058 7.87725C17.2024 7.76803 17.0782 7.68064 16.9405 7.62024C16.8028 7.55985 16.6544 7.52767 16.504 7.52561C16.3537 7.52356 16.2044 7.55167 16.0651 7.60828C15.9258 7.66489 15.7993 7.74885 15.693 7.8552C15.5867 7.96156 15.5028 8.08814 15.4462 8.22747C15.3897 8.36681 15.3616 8.51606 15.3638 8.66642C15.3659 8.81677 15.3981 8.96518 15.4586 9.10286C15.5191 9.24053 15.6065 9.3647 15.7158 9.468L17.5338 11.286C17.638 11.3908 17.762 11.4739 17.8985 11.5307C18.035 11.5874 18.1813 11.6166 18.3291 11.6166C18.477 11.6166 18.6233 11.5874 18.7598 11.5307C18.8963 11.4739 19.0203 11.3908 19.1245 11.286L22.7065 7.70325C22.8171 7.60026 22.9057 7.47606 22.9672 7.33806C23.0287 7.20006 23.0617 7.05109 23.0644 6.90003C23.0671 6.74898 23.0393 6.59894 22.9827 6.45885C22.9261 6.31877 22.8419 6.19152 22.7351 6.08469C22.6283 5.97786 22.501 5.89365 22.3609 5.83707C22.2208 5.78048 22.0708 5.7527 21.9197 5.75536C21.7687 5.75803 21.6197 5.79109 21.4817 5.85258C21.3437 5.91407 21.2195 6.00272 21.1165 6.11325L21.1158 6.1125Z" fill="url(#paint0_linear_37_1171)"/>
</g>
<defs>
<linearGradient id="paint0_linear_37_1171" x1="12.0162" y1="0.375" x2="12.0162" y2="23.625" gradientUnits="userSpaceOnUse">
<stop stop-color="#A85000"/>
<stop offset="1" stop-color="#522700"/>
</linearGradient>
<clipPath id="clip0_37_1171">
<rect width="24" height="24" fill="white"/>
</clipPath>
</defs>
</svg>
